<?xml version="1.0" encoding="UTF-8" standalone="no"?>
<svg viewBox="0 0 518 265" version="1.1" xmlns="http://www.w3.org/2000/svg" xmlns:xlink="http://www.w3.org/1999/xlink" xmlns:sketch="http://www.bohemiancoding.com/sketch/ns">
    <!-- Generator: Sketch 3.0.1 (7597) - http://www.bohemiancoding.com/sketch -->
    <title>Bigpipe process</title>
    <description>Diagram showing how pagelets resources are requested.</description>
    <defs></defs>
    <g id="Page-1" stroke="none" stroke-width="1" fill="none" fill-rule="evenodd" sketch:type="MSPage">
        <g id="Pagelets" sketch:type="MSLayerGroup" transform="translate(0.000000, -3.000000)">
            <rect id="Rectangle-1" fill="#FC687C" sketch:type="MSShapeGroup" x="1" y="38" width="252" height="28"></rect>
            <rect id="Rectangle-10" fill="#FC687C" sketch:type="MSShapeGroup" x="1" y="212" width="516" height="28"></rect>
            <rect id="Rectangle-11" stroke="#C8C8C8" fill="#A8A8A8" sketch:type="MSShapeGroup" x="1" y="240" width="129" height="28"></rect>
            <rect id="Rectangle-12" stroke="#C8C8C8" fill="#A8A8A8" sketch:type="MSShapeGroup" x="130" y="240" width="129" height="28"></rect>
            <rect id="Rectangle-13" stroke="#C8C8C8" fill="#A8A8A8" sketch:type="MSShapeGroup" x="259" y="240" width="129" height="28"></rect>
            <rect id="Rectangle-14" stroke="#C8C8C8" fill="#A8A8A8" sketch:type="MSShapeGroup" x="388" y="240" width="129" height="28"></rect>
            <path d="M115,190 L103,190 L126.5,210 L150,190 L138,190 L138,180 L115,180 L115,190 Z M0,124 L0,180 L252,180 L252,124 L0,124 Z" id="Rectangle-8" fill="#5767B4" sketch:type="MSShapeGroup"></path>
            <rect id="Rectangle-2" stroke="#C8C8C8" fill="#A8A8A8" sketch:type="MSShapeGroup" x="1" y="66" width="126" height="28"></rect>
            <rect id="Rectangle-4" stroke="#C8C8C8" fill="#A8A8A8" sketch:type="MSShapeGroup" x="265" y="66" width="126" height="28"></rect>
            <rect id="Rectangle-6" stroke="#C8C8C8" fill="#A8A8A8" sketch:type="MSShapeGroup" x="127" y="66" width="126" height="28"></rect>
            <rect id="Rectangle-5" stroke="#C8C8C8" fill="#A8A8A8" sketch:type="MSShapeGroup" x="391" y="66" width="126" height="28"></rect>
            <rect id="Rectangle-3" fill="#FC687C" sketch:type="MSShapeGroup" x="265" y="38" width="252" height="28"></rect>
            <path d="M138,114 L150,114 L126.5,94 L103,114 L115,114 L115,124 L138,124 L138,114 Z" id="Triangle-1" fill="#D8D8D8" sketch:type="MSShapeGroup" transform="translate(126.500000, 109.000000) rotate(-180.000000) translate(-126.500000, -109.000000) "></path>
            <path d="M403,114 L415,114 L391.5,94 L368,114 L380,114 L380,124 L403,124 L403,114 Z" id="Triangle-2" fill="#A8A8A8" sketch:type="MSShapeGroup" transform="translate(391.500000, 109.000000) rotate(-180.000000) translate(-391.500000, -109.000000) "></path>
            <path d="M138,114 L150,114 L126.5,94 L103,114 L115,114 L115,124 L138,124 L138,114 Z" id="Triangle-3" fill="#A8A8A8" sketch:type="MSShapeGroup" transform="translate(126.500000, 109.000000) rotate(-180.000000) translate(-126.500000, -109.000000) "></path>
            <path d="M380,190 L368,190 L391.5,210 L415,190 L403,190 L403,180 L380,180 L380,190 Z M266,124 L266,180 L518,180 L518,124 L266,124 Z" id="Rectangle-9" fill="#5767B4" sketch:type="MSShapeGroup"></path>
            <text id="Download-CSS" sketch:type="MSTextLayer" font-family="Helvetica" font-size="16" font-weight="normal" sketch:alignment="middle" fill="#FFFFFF">
                <tspan x="72.25" y="57">Download CSS</tspan>
            </text>
            <text id="Download-CSS-2" sketch:type="MSTextLayer" font-family="Helvetica" font-size="16" font-weight="normal" sketch:alignment="middle" fill="#FFFFFF">
                <tspan x="337.25" y="57">Download CSS</tspan>
            </text>
            <text id="Inject-HTML-inside-i" sketch:type="MSTextLayer" font-family="Helvetica" font-size="16" font-weight="normal" sketch:alignment="middle" fill="#FFFFFF">
                <tspan x="14.1914062" y="157">Inject HTML inside its container</tspan>
            </text>
            <text id="Download-Javascript" sketch:type="MSTextLayer" font-family="Helvetica" font-size="16" font-weight="normal" sketch:alignment="middle" fill="#FFFFFF">
                <tspan x="184.1875" y="231">Download Javascript</tspan>
            </text>
            <text id="Inject-HTML-inside-i-2" sketch:type="MSTextLayer" font-family="Helvetica" font-size="16" font-weight="normal" sketch:alignment="middle" fill="#FFFFFF">
                <tspan x="281.191406" y="157">Inject HTML inside its container</tspan>
            </text>
            <text id="style1-1.css" sketch:type="MSTextLayer" font-family="Helvetica" font-size="16" font-weight="normal" sketch:alignment="middle" fill="#FFFFFF">
                <tspan x="21.265625" y="85">style1-1.css</tspan>
            </text>
            <text id="script1-1.js" sketch:type="MSTextLayer" font-family="Helvetica" font-size="16" font-weight="normal" sketch:alignment="middle" fill="#FFFFFF">
                <tspan x="27.3242188" y="259">script1-1.js</tspan>
            </text>
            <text id="script1-2.js" sketch:type="MSTextLayer" font-family="Helvetica" font-size="16" font-weight="normal" sketch:alignment="middle" fill="#FFFFFF">
                <tspan x="156.324219" y="259">script1-2.js</tspan>
            </text>
            <text id="script2-1.js" sketch:type="MSTextLayer" font-family="Helvetica" font-size="16" font-weight="normal" sketch:alignment="middle" fill="#FFFFFF">
                <tspan x="285.324219" y="259">script2-1.js</tspan>
            </text>
            <text id="script2-2.js" sketch:type="MSTextLayer" font-family="Helvetica" font-size="16" font-weight="normal" sketch:alignment="middle" fill="#FFFFFF">
                <tspan x="413.324219" y="259">script2-2.js</tspan>
            </text>
            <text id="style1-2.css" sketch:type="MSTextLayer" font-family="Helvetica" font-size="16" font-weight="normal" sketch:alignment="middle" fill="#FFFFFF">
                <tspan x="147.265625" y="85">style1-2.css</tspan>
            </text>
            <text id="style2-1.css" sketch:type="MSTextLayer" font-family="Helvetica" font-size="16" font-weight="normal" sketch:alignment="middle" fill="#FFFFFF">
                <tspan x="286.265625" y="85">style2-1.css</tspan>
            </text>
            <text id="style2-2.css" sketch:type="MSTextLayer" font-family="Helvetica" font-size="16" font-weight="normal" sketch:alignment="middle" fill="#FFFFFF">
                <tspan x="412.265625" y="85">style2-2.css</tspan>
            </text>
            <text id="Pagelet-1" sketch:type="MSTextLayer" font-family="Helvetica" font-size="16" font-weight="normal" sketch:alignment="middle" fill="#000000">
                <tspan x="92.1953125" y="15">Pagelet 1</tspan>
            </text>
            <text id="Pagelet-2" sketch:type="MSTextLayer" font-family="Helvetica" font-size="16" font-weight="normal" sketch:alignment="middle" fill="#000000">
                <tspan x="358.195312" y="15">Pagelet 2</tspan>
            </text>
        </g>
    </g>
</svg>