<svg viewBox="0 0 518 265" xmlns="http://www.w3.org/2000/svg" xmlns:sketch="http://www.bohemiancoding.com/sketch/ns"><title>Bigpipe process</title><g sketch:type="MSLayerGroup" fill="none"><path fill="#FC687C" sketch:type="MSShapeGroup" d="M1 35h252v28h-252z"/><path fill="#FC687C" sketch:type="MSShapeGroup" d="M1 209h516v28h-516z"/><path stroke="#C8C8C8" fill="#A8A8A8" sketch:type="MSShapeGroup" d="M1 237h129v28h-129z"/><path stroke="#C8C8C8" fill="#A8A8A8" sketch:type="MSShapeGroup" d="M130 237h129v28h-129z"/><path stroke="#C8C8C8" fill="#A8A8A8" sketch:type="MSShapeGroup" d="M259 237h129v28h-129z"/><path stroke="#C8C8C8" fill="#A8A8A8" sketch:type="MSShapeGroup" d="M388 237h129v28h-129z"/><path d="M115 187h-12l23.5 20 23.5-20h-12v-10h-23v10zm-115-66v56h252v-56h-252z" fill="#5767B4" sketch:type="MSShapeGroup"/><path stroke="#C8C8C8" fill="#A8A8A8" sketch:type="MSShapeGroup" d="M1 63h126v28h-126z"/><path stroke="#C8C8C8" fill="#A8A8A8" sketch:type="MSShapeGroup" d="M265 63h126v28h-126z"/><path stroke="#C8C8C8" fill="#A8A8A8" sketch:type="MSShapeGroup" d="M127 63h126v28h-126z"/><path stroke="#C8C8C8" fill="#A8A8A8" sketch:type="MSShapeGroup" d="M391 63h126v28h-126z"/><path fill="#FC687C" sketch:type="MSShapeGroup" d="M265 35h252v28h-252z"/><path d="M115 101h-12l23.5 20 23.5-20h-12v-10h-23v10z" fill="#D8D8D8" sketch:type="MSShapeGroup"/><path d="M380 101h-12l23.5 20 23.5-20h-12v-10h-23v10z" fill="#A8A8A8" sketch:type="MSShapeGroup"/><path d="M115 101h-12l23.5 20 23.5-20h-12v-10h-23v10z" fill="#A8A8A8" sketch:type="MSShapeGroup"/><path d="M380 187h-12l23.5 20 23.5-20h-12v-10h-23v10zm-114-66v56h252v-56h-252z" fill="#5767B4" sketch:type="MSShapeGroup"/><text sketch:type="MSTextLayer" font-family="Helvetica" font-size="16" sketch:alignment="middle" fill="#fff" transform="translate(0 -3)"><tspan x="72.25" y="57">Download CSS</tspan></text><text sketch:type="MSTextLayer" font-family="Helvetica" font-size="16" sketch:alignment="middle" fill="#fff" transform="translate(0 -3)"><tspan x="337.25" y="57">Download CSS</tspan></text><text sketch:type="MSTextLayer" font-family="Helvetica" font-size="16" sketch:alignment="middle" fill="#fff" transform="translate(0 -3)"><tspan x="14.191" y="157">Inject HTML inside its container</tspan></text><text sketch:type="MSTextLayer" font-family="Helvetica" font-size="16" sketch:alignment="middle" fill="#fff" transform="translate(0 -3)"><tspan x="184.188" y="231">Download Javascript</tspan></text><text sketch:type="MSTextLayer" font-family="Helvetica" font-size="16" sketch:alignment="middle" fill="#fff" transform="translate(0 -3)"><tspan x="281.191" y="157">Inject HTML inside its container</tspan></text><text sketch:type="MSTextLayer" font-family="Helvetica" font-size="16" sketch:alignment="middle" fill="#fff" transform="translate(0 -3)"><tspan x="21.266" y="85">style1-1.css</tspan></text><text sketch:type="MSTextLayer" font-family="Helvetica" font-size="16" sketch:alignment="middle" fill="#fff" transform="translate(0 -3)"><tspan x="27.324" y="259">script1-1.js</tspan></text><text sketch:type="MSTextLayer" font-family="Helvetica" font-size="16" sketch:alignment="middle" fill="#fff" transform="translate(0 -3)"><tspan x="156.324" y="259">script1-2.js</tspan></text><text sketch:type="MSTextLayer" font-family="Helvetica" font-size="16" sketch:alignment="middle" fill="#fff" transform="translate(0 -3)"><tspan x="285.324" y="259">script2-1.js</tspan></text><text sketch:type="MSTextLayer" font-family="Helvetica" font-size="16" sketch:alignment="middle" fill="#fff" transform="translate(0 -3)"><tspan x="413.324" y="259">script2-2.js</tspan></text><text sketch:type="MSTextLayer" font-family="Helvetica" font-size="16" sketch:alignment="middle" fill="#fff" transform="translate(0 -3)"><tspan x="147.266" y="85">style1-2.css</tspan></text><text sketch:type="MSTextLayer" font-family="Helvetica" font-size="16" sketch:alignment="middle" fill="#fff" transform="translate(0 -3)"><tspan x="286.266" y="85">style2-1.css</tspan></text><text sketch:type="MSTextLayer" font-family="Helvetica" font-size="16" sketch:alignment="middle" fill="#fff" transform="translate(0 -3)"><tspan x="412.266" y="85">style2-2.css</tspan></text><text sketch:type="MSTextLayer" font-family="Helvetica" font-size="16" sketch:alignment="middle" fill="#000" transform="translate(0 -3)"><tspan x="92.195" y="15">Pagelet 1</tspan></text><text sketch:type="MSTextLayer" font-family="Helvetica" font-size="16" sketch:alignment="middle" fill="#000" transform="translate(0 -3)"><tspan x="358.195" y="15">Pagelet 2</tspan></text></g></svg>