<?xml version="1.0" encoding="UTF-8" standalone="no"?>
<svg viewBox="0 0 1018 599" version="1.1" xmlns="http://www.w3.org/2000/svg" xmlns:xlink="http://www.w3.org/1999/xlink" xmlns:sketch="http://www.bohemiancoding.com/sketch/ns">
    <!-- Generator: Sketch 3.0.1 (7597) - http://www.bohemiancoding.com/sketch -->
    <title>Stickers!</title>
    <description>Created with Sketch.</description>
    <defs>
        <radialGradient cx="50%" cy="0%" fx="50%" fy="0%" r="111.34682%" id="radialGradient-1">
            <stop stop-color="#FFFFFF" offset="0%"></stop>
            <stop stop-color="#FDFDFD" offset="53.957415%"></stop>
            <stop stop-color="#ECECEC" offset="100%"></stop>
        </radialGradient>
        <rect id="path-2" x="0" y="0" width="1018" height="599"></rect>
        <radialGradient cx="50%" cy="0%" fx="50%" fy="0%" r="100%" id="radialGradient-3">
            <stop stop-color="#131313" offset="0%"></stop>
            <stop stop-color="#000000" offset="100%"></stop>
        </radialGradient>
        <radialGradient cx="50.8262172%" cy="19.7598471%" fx="50.8262172%" fy="19.7598471%" r="50%" id="radialGradient-4">
            <stop stop-color="#A9D03F" offset="0%"></stop>
            <stop stop-color="#A9D03F" offset="7.105015%"></stop>
            <stop stop-color="#A1CC3E" offset="24.677444%"></stop>
            <stop stop-color="#94C93D" offset="45.569649%"></stop>
            <stop stop-color="#8DC540" offset="59.65941%"></stop>
            <stop stop-color="#84BC41" offset="79.657596%"></stop>
            <stop stop-color="#79B641" offset="100%"></stop>
        </radialGradient>
        <path id="path-5" d="M13.2038517,75.6814569 C15.4320958,86.1626878 20.9338841,92.3551394 26.3259557,96 L83.7835359,95.9338028 C90.7335831,91.1896667 97.8412232,82.2008828 97.8412232,65.2283097 L97.8412232,21.7046222 C97.8412232,21.7046222 98.7329199,10.9345306 108.551557,7.3458374 C108.551557,7.3458374 114.348583,3.30579931 108.102717,1.06512277 C108.102717,1.06512277 80.8830283,-1.18758963 80.8830283,21.2532774 L80.8830283,54.4582181 C80.8830283,54.4582181 81.9582509,66.698691 75.5288587,71.7316878 L75.5288587,30.7515794 C75.5288587,30.7515794 75.9737096,17.7408113 82.6664216,12.8041014 C82.6664216,12.8041014 87.1268996,4.73004313 77.312252,6.97071966 C77.312252,6.97071966 58.5726586,9.66274107 57.6789671,31.6502572 L57.250075,73.7537128 L52.7457103,73.7537128 L52.3208079,31.6502572 C51.4291113,9.66274107 32.687523,6.97071966 32.687523,6.97071966 C22.8688857,4.73004313 27.3333535,12.8041014 27.3333535,12.8041014 C34.0260654,17.7408113 34.4709163,30.7515794 34.4709163,30.7515794 L34.4709163,72.2010864 C28.0375345,67.6254524 29.1187416,54.4562121 29.1187416,54.4562121 L29.1187416,21.2512714 C29.1187416,-1.19160159 1.89905331,1.06311679 1.89905331,1.06311679 C-4.35080257,3.30379333 1.45021272,7.34383142 1.45021272,7.34383142 C11.26885,10.9325246 12.1605466,21.7026163 12.1605466,21.7026163 L12.1605466,52.1533502 L13.2038517,75.6814569 L13.2038517,75.6814569 Z"></path>
        <filter x="-50%" y="-50%" width="200%" height="200%" filterUnits="objectBoundingBox" id="filter-7">
            <feOffset dx="0" dy="2" in="SourceAlpha" result="shadowOffsetOuter1"></feOffset>
            <feGaussianBlur stdDeviation="2" in="shadowOffsetOuter1" result="shadowBlurOuter1"></feGaussianBlur>
            <feColorMatrix values="0 0 0 0 0.0392156863   0 0 0 0 0.0392156863   0 0 0 0 0.0588235294  0 0 0 0.07 0" in="shadowBlurOuter1" type="matrix" result="shadowMatrixOuter1"></feColorMatrix>
            <feMerge>
                <feMergeNode in="shadowMatrixOuter1"></feMergeNode>
                <feMergeNode in="SourceGraphic"></feMergeNode>
            </feMerge>
        </filter>
    </defs>
    <g id="Page-1" stroke="none" stroke-width="1" fill="none" fill-rule="evenodd" sketch:type="MSPage">
        <g id="Group" sketch:type="MSLayerGroup">
            <g id="Rectangle-1">
                <use fill="url(#radialGradient-1)" fill-rule="evenodd" sketch:type="MSShapeGroup" xlink:href="#path-2"></use>
                <use fill="none" xlink:href="#path-2"></use>
            </g>
            <g id="Spotify" transform="translate(287.500000, 452.500000) rotate(3.000000) translate(-287.500000, -452.500000) translate(46.000000, 370.000000)" sketch:type="MSShapeGroup">
                <g id="layer1">
                    <g id="g3128">
                        <rect id="Rectangle-2" stroke="#979797" fill="url(#radialGradient-3)" x="0" y="0" width="483" height="165" rx="8"></rect>
                        <path d="M177.423186,102.566782 C176.740578,102.043027 176.994836,101.49194 177.409026,101.015202 L183.305477,94.0494731 C183.782282,93.5207374 184.236019,93.5898637 184.777087,94.0594902 C190.076388,98.633854 194.842644,101.315875 202.436407,101.315875 C207.291504,101.315875 212.147032,99.4592481 212.147032,94.5806662 C212.147032,92.9831023 211.611024,91.617133 210.662639,90.654577 C204.547533,84.4480846 179.331129,87.6545678 179.331129,68.0407368 C179.331129,59.4548762 185.566676,50 200.374152,50 C209.428785,50 216.283783,53.1578405 221.657437,57.3265447 C222.467424,57.9666532 222.268008,58.4115099 221.870808,58.9033281 L216.671982,66.2567095 C216.17053,66.9003106 215.833449,66.9134488 214.890032,66.2567095 C211.848136,63.9076007 206.602192,60.7643065 200.0538,60.7643065 C194.657446,60.7643065 191.184098,63.223142 191.184098,67.1587467 C191.184098,78.8832962 224,71.363838 224,93.6986744 C224,104.517359 215.635942,112 202.276233,112 C192.8379,112 184.705421,108.800349 177.423185,102.566782 L177.423186,102.566782 Z" id="path3017" fill="#FFFFFF"></path>
                        <path d="M252.704433,65 C245.522383,65 241.815998,68.2004647 238.586207,71.6073781 L238.586207,66.8510375 C238.586207,66.2282059 238.33106,65.9328063 237.679803,65.9328063 L228.103448,65.9328063 C227.120659,65.9328063 227,66.1757402 227,67.0210804 L227,123.067194 C227,123.710214 227.256774,124 227.945813,124 L237.482759,124 C238.216322,124 238.586207,123.771559 238.586207,122.911726 L238.586207,105.397316 C241.054912,108.528327 245.958892,111.737484 252.660099,111.737484 C263.177015,111.737484 274,104.029789 274,88.4173254 C274,71.8154188 262.227064,65 252.704433,65 L252.704433,65 Z M250.101464,75 C256.071401,75 262,79.7098018 262,88.6289967 C262,96.6153701 256.795538,102 250.101464,102 C242.910293,102 238,95.6019895 238,88.5496141 C238,81.5454525 242.592743,75 250.101464,75 L250.101464,75 Z" id="path3019" fill="#FFFFFF"></path>
                        <g id="flowRoot3023" transform="translate(278.000000, 65.000000)" fill="#FFFFFF">
                            <path d="M49,24.000129 L49,23.8267901 C48.9999578,20.5015 48.3803371,17.390561 47.1411592,14.4940159 C45.9018968,11.5975139 44.198183,9.07420669 42.0300177,6.92409433 C39.8617678,4.77404647 37.2849291,3.08252954 34.2994804,1.84947902 C31.3139684,0.616536017 28.0758392,4.30121402e-05 24.5850716,0 C21.0358227,4.30121402e-05 17.7689068,0.630536469 14.7843029,1.89148037 C11.7996567,3.1525318 9.20906887,4.87293138 7.01251817,7.05272213 C4.81594634,9.2325989 3.0980398,11.7703367 1.85881966,14.665957 C0.619599512,17.5616418 0,20.673011 0,24.000043 L0,24.1705861 C0,27.4976827 0.619599512,30.6094605 1.85881966,33.5059841 C3.0980398,36.4025291 4.80175366,38.9258363 6.96998235,41.0759057 C9.1381688,43.225975 11.7150286,44.9175135 14.7005196,46.150521 C17.6859683,47.383507 20.9240975,48 24.4149284,48 C27.964114,48 31.231051,47.3690764 34.2156971,46.1071863 C37.2002799,44.8453176 39.7908678,43.124918 41.9874818,40.9459445 C44.1840114,38.7669925 45.9018968,36.2292547 47.1411592,33.3327097 C48.3803371,30.4362076 48.9999578,27.3252901 49,23.9999355 L49,24.000129 Z M24.0805825,37 C15.5333188,37 11,29.6202155 11,23.377133 C11,15.665569 16.5577451,10 23.8931579,10 C30.3311482,10 37,14.9862507 37,23.6623829 C37,32.0156738 30.7872885,37 24.0805825,37 L24.0805825,37 Z" id="path3032"></path>
                        </g>
                        <path d="M347.913235,101.368728 C350.442823,101.368728 352.35033,100.522021 353.288827,100.087853 C354.191877,99.5810152 354.842391,99.8274555 354.842391,100.819374 L354.842391,108.78927 C354.842391,109.276008 354.577278,109.549257 354.161301,109.779815 C351.603044,111.073685 349.029058,112 344.915865,112 C335.91562,112 331.516304,107.046197 331.516304,98.4284057 L331.516304,75.475106 L326.788043,75.475106 C326.175308,75.475106 326,75.1506738 326,74.6781164 L326,65.8315321 C326,65.4249112 326.200904,65.1939405 326.630435,65.1939405 L331.516304,65.1939405 L331.516304,53.9563875 C331.516304,53.4344868 331.688019,53 332.461957,53 L342.076087,53 C342.909411,53 343.179348,53.3602218 343.179348,54.1157854 L343.179348,65.1939405 L354.163807,65.1939405 C354.645869,65.1939405 355,65.4486073 355,66.150328 L355,74.5187185 C355,75.1713493 354.705067,75.475106 354.054348,75.475106 L343.179348,75.475106 L343.179348,96.3562328 C343.179348,99.156258 343.970906,101.368728 347.913235,101.368728 L347.913235,101.368728 Z" id="path3034" fill="#FFFFFF"></path>
                        <path d="M359.972973,110 C359.332108,110 359,109.705595 359,109.064125 L359,65.9358752 C359,65.3355659 359.264908,65 359.972973,65 L370.0082,65 C370.768303,65 371,65.4078326 371,65.944139 L371,109.064125 C371,109.799351 370.6616,110 370.027027,110 L359.972973,110 Z" id="path3036" fill="#FFFFFF"></path>
                        <path d="M373,53 C373,56.8659922 369.865985,60 366.000018,60 C362.134015,60 359,56.8659922 359,53 C359,49.1340078 362.134015,46 366.000018,46 C369.865985,46 373,49.1340078 373,53 L373,53 Z" id="path3038" fill="#FFFFFF"></path>
                        <path d="M382.282592,110.461151 C381.738551,110.461151 381.497268,110.165761 381.497268,109.677903 L381.497268,75.3716244 L376.785324,75.3716244 L376,74.588376 L376,66.0665759 C376,65.5311207 376.160316,65.2677205 376.785324,65.2677205 L381.497268,65.2677205 L381.497268,63.15295 C381.497268,54.7968836 384.882486,48 395.741507,48 C399.093176,48 402.555638,48.7913299 403.8537,49.1036956 C404.404024,49.2715802 404.585795,49.5112495 404.585795,49.9943775 L404.585795,58.2968101 C404.585795,59.1440279 403.978032,59.296741 402.911845,58.9149529 C402.090663,58.6335301 400.141536,58.0799521 398.006287,58.0799521 C393.97803,58.0799521 392.805934,60.4541173 392.805934,64.092848 L392.805934,65.2677205 L409.925998,65.2677205 C410.399533,65.2677205 410.612937,65.4598185 410.878455,66.1584901 L422.416294,96.3334168 L432.907626,66.3516767 C433.188003,65.5873611 433.347047,65.3460454 433.956914,65.3460454 L444.166126,65.3460454 C445.15188,65.3460454 445.144765,66.0298776 444.754004,66.9648803 L427.653966,111.194951 C425.106751,117.02306 422.609672,124 412.428496,124 C407.561011,124 404.931369,122.853459 401.708352,121.344293 C400.960613,121.007178 401.297266,120.259856 401.702226,119.496114 L404.671725,112.985717 C405.013451,112.230561 405.524885,112.331725 406.195238,112.655069 C407.001436,113.060983 409.051917,114.064133 411.349335,114.064133 C414.319525,114.064133 415.567373,112.179664 416.731286,109.762483 L402.386887,75.3716244 L392.962999,75.3716244 L392.962999,109.677903 C392.962999,110.184422 392.717868,110.461151 392.177675,110.461151 L382.282592,110.461151 Z" id="path3040" fill="#FFFFFF"></path>
                        <g id="g3099" transform="translate(28.000000, 16.000000)">
                            <path d="M25.8700104,82.7087425 L26.0893841,84.8495203 L27.7493119,85.61408 C27.8448694,83.0817682 29.426302,81.5436874 31.5152272,81.1723315 C38.1348732,79.7389711 46.2773577,78.3689341 55.7633342,78.3689341 C70.6786035,78.3689341 83.5448453,82.0516133 93.9562973,88.3737901 C95.493431,89.3040069 95.9968251,90.4624525 96.2158466,92 L102,88.2718499 L100.537508,82.5339842 L57.3647625,71 L17,76.1262162 L25.8700104,82.7087425 Z" id="path3103" stroke="#008080" stroke-width="0.5" fill="#7A9F3F"></path>
                            <path d="M22.612021,67.1048584 L24.5778366,66.3437803 C24.6463067,63.8146036 25.9752168,61.7117925 28.8175432,60.9161106 C36.1714162,58.6985678 44.8080414,57.3097833 54.2411131,57.3097833 C72.3376054,57.3097833 88.9228381,62.1757904 101.039419,69.6747679 C102.978359,70.8968608 103.723085,71.7994189 104.08878,75 L113,69.9728967 L75.5726143,52 L13,55.7479068 L22.612021,67.1048584 Z" id="path3105" stroke="#000080" stroke-width="0.5" fill="#82A73E"></path>
                            <path d="M20.8981917,45.8537314 C20.698527,42.1209604 22.6303386,39.4348804 25.4604704,38.6098415 C34.7641246,35.8698442 44.7417166,34.5267864 56.5309089,34.5267864 C76.1398236,34.5267864 95.8397407,38.6883512 110.251522,47.1295935 C113.084029,48.6925802 113.902469,50.792222 114.056651,54 L123,48.0130949 L96.1545483,25 L14,33.9191492 L20.8981917,45.8537314 Z" id="path3107" stroke="#000000" stroke-width="0.5" fill="#81A83E"></path>
                            <path d="M65,0 C29.1018552,0 0,29.099713 0,64.9986306 C0,100.897531 29.1018552,130 65,130 C100.898145,130 130,100.897531 130,64.9986306 C130,29.099713 100.898145,0 65,0 L65,0 Z M55.1776731,34 C74.1427767,34 94.0967478,38.000644 108.67194,46.779517 C110.636519,47.9205903 112,49.6409928 112,52.7947227 C112,56.4053041 109.170087,59 105.908097,59 C104.593086,59 103.812856,58.6718962 102.580037,57.9797585 C90.8893421,50.791127 72.7475136,46.8326208 55.2022042,46.8326208 C46.4440672,46.8326208 37.5488235,47.7459928 29.4008829,50.0135242 C28.4624534,50.2557156 27.2764798,50.7374776 26.0891773,50.7374776 C22.6437265,50.7374776 20,47.9422004 20,44.4092129 C20,40.8097585 22.1753471,38.789195 24.5219092,38.0781485 C33.7288228,35.2966011 44.0058651,34 55.1776731,34 L55.1776731,34 Z M54.6520698,56 C71.6544571,56 88.1025037,60.1977391 101.033971,67.8695652 C103.201884,69.1018696 104,70.6667565 104,72.9592435 C104,75.7474 101.760796,78 98.9369166,78 C97.5274893,78 96.6409042,77.4354348 95.6830563,76.8831565 C85.1167163,70.6672522 70.4721743,66.5380522 54.4355113,66.5380522 C46.2104682,66.5380522 39.1110699,67.6797478 33.2347063,69.2309826 C31.9686413,69.5763913 31.2588616,69.9483739 30.0740484,69.9483739 C27.2803931,69.9483739 25,67.6916696 25,64.8994609 C25,62.1613391 26.3396648,60.276 29.0405982,59.5217391 C36.3424789,57.5338 43.7990041,56 54.6520698,56 L54.6520698,56 Z M54.7630225,77 C68.9350018,77 81.5655098,80.2295024 92.4336013,86.7004528 C94.0511625,87.6385514 95,88.5971705 95,90.9764773 C95,93.2956647 93.1012878,95 90.9713826,95 C89.9240208,95 89.2094733,94.6390833 88.2300643,94.0470627 C78.8438481,88.4061087 67.1405347,85.4407237 54.7192926,85.4407237 C47.7895486,85.4407237 40.8150261,86.3235419 34.2919614,87.672399 C33.2312614,87.9008183 31.896453,88.3076934 31.0996785,88.3076934 C28.6402375,88.3076934 27,86.3670851 27,84.2651619 C27,81.5618701 28.5701597,80.2158278 30.5229904,79.8452502 C38.5221824,78.0344114 46.4886531,77 54.7630225,77 L54.7630225,77 Z" id="path3101" fill="url(#radialGradient-4)"></path>
                        </g>
                    </g>
                </g>
            </g>
            <g id="AngularJS_logo-277491e8433b2208d2023bb9de845854" transform="translate(165.500000, 175.000000) rotate(-4.000000) translate(-165.500000, -175.000000) translate(43.000000, 45.000000)" sketch:type="MSShapeGroup">
                <g id="Group">
                    <path d="M122.107928,0 L0,43.0500316 L19.2949665,203.318938 L122.23788,260 L225.71094,202.549659 L245,42.2866702 L122.107928,0 L122.107928,0 Z" id="Shape" fill="#B2B2B2"></path>
                    <path d="M233,51.9477574 L122,14 L122,247 L215.025984,195.388859 L233,51.9477574 L233,51.9477574 Z" id="Shape" fill="#B52E31"></path>
                    <path d="M14,52.6354458 L30.3623848,196.075294 L121,247 L121,14 L14,52.6354458 L14,52.6354458 Z" id="Shape" fill="#E23237"></path>
                    <path d="M147,129 L121.472264,76 L99,129 L147,129 L147,129 Z M157.227815,152.378221 L89.3998385,152.378221 L74.2251423,190.47696 L46,191 L121.68104,22 L200,190.998514 L173.839895,190.998514 L157.227815,152.378221 L157.227815,152.378221 Z" id="Shape" fill="#F2F2F2"></path>
                    <path d="M122.001477,22 L122.202375,76.024238 L147.710453,129.541818 L122.05761,129.541818 L122,151.951796 L157.468755,151.985869 L174.04871,190.497787 L201,191 L122.001477,22 L122.001477,22 Z" id="Shape" fill="#B2B2B2"></path>
                </g>
            </g>
            <g id="github-2" transform="translate(586.000000, 184.000000)" stroke="#FFFFFF" stroke-width="20" fill="#FFFFFF" sketch:type="MSShapeGroup">
                <g transform="translate(216.156269, 201.138182) rotate(16.000000) translate(-216.156269, -201.138182) translate(36.656269, 43.638182)" id="Group">
                    <g transform="translate(-0.077477, 0.448725)">
                        <path d="M136.43618,248.535068 C103.01749,254.222239 80,266.176621 80,280.001987 C80,299.331649 124.993862,315 180.500998,315 C236.004142,315 281,299.331649 281,280.001987 C281,265.896463 257.044064,253.739176 222.530074,248.197623 C222.504116,248.00088 222.495169,247.893566 222.495169,247.893566 L222.495169,204.52626 C222.495169,187.61467 215.365171,178.660182 208.389302,173.931093 C249.045503,169.905571 268.553914,156.797639 277.543477,136.430176 C295.350456,136.917876 327.397415,139.084542 358.053204,147.719227 L358.41751,146.430021 C327.93787,137.845305 296.10309,135.624672 278.115958,135.100994 C278.968676,133.04426 279.7113,130.903578 280.371856,128.702932 C298.585178,127.92741 329.056811,127.933406 358.733776,133.859758 L359,132.544568 C329.439133,126.642201 299.105615,126.582238 280.754178,127.343769 C283.768714,116.498445 284.675476,104.018127 284.675476,90.1006938 C284.675476,70.1409799 277.165158,54.172809 264.972902,42.0222881 C267.102694,35.1545155 269.949088,19.9039029 262.130511,0.381919545 C262.130511,0.381919545 248.336907,-3.9913885 217.138663,16.8597767 C204.918383,13.8096542 191.909439,12.3045806 178.882481,12.3045806 C164.550424,12.3045806 150.068241,14.1274586 136.560879,17.8271812 C104.365795,-4.11131468 90.151838,0.381919545 90.151838,0.381919545 C80.8720316,23.54766 86.6088576,40.6991026 88.3523242,44.9604795 C77.4471505,56.7112464 70.78955,71.7120128 70.78955,90.1026926 C70.78955,103.986147 72.3748836,116.442479 76.2421368,127.267816 C57.7345678,126.596229 28.5039783,126.852072 0,132.544568 L0.264222271,133.859758 C28.9383437,128.133283 58.3510864,127.933406 76.7465612,128.628978 C77.5992785,130.869599 78.546075,133.04426 79.6109708,135.144967 C61.4196678,135.730607 30.3615409,138.045182 0.592498425,146.430021 L0.958806573,147.719227 C30.9600444,139.270428 62.292402,137.015816 80.3075568,136.464155 C91.1767002,156.693703 112.604726,169.75966 150.726795,173.863134 C145.316244,177.4929 139.797601,183.665101 137.559719,194.108672 C130.185515,197.630505 106.845881,206.225214 92.8421012,182.174019 C92.8421012,182.174019 85.0035071,167.862828 70.0008865,166.741518 C70.0008865,166.741518 55.4466431,166.519655 68.9940396,175.797944 C68.9940396,175.797944 78.7342333,180.381122 85.453886,197.600523 C85.453886,197.600523 94.2192597,226.972443 136.520845,217.548244 L136.520845,247.889568 C136.520845,247.889568 136.5013,248.123984 136.43618,248.535068 L136.43618,248.535068 Z M153.537159,246.274089 C155.308134,246.102721 157.098788,245.947819 158.907677,245.809884 L158.907677,197.570542 C152.45625,202.131734 153.537159,215.251658 153.537159,215.251658 L153.537159,246.274089 L153.537159,246.274089 Z M176.865419,245.022476 C178.071982,245.007534 179.283963,245 180.500998,245 C181.051113,244.99998 181.600195,245.0015 182.148211,245.004549 L181.764905,196.023494 L177.247105,196.023494 L176.865442,245.022476 L176.865419,245.022476 Z M200.106335,245.6651 C201.915093,245.78963 203.706404,245.931067 205.478854,246.08892 L205.478854,215.255656 C205.478854,215.255656 206.557762,203.061162 200.106335,198.04425 L200.106335,245.6651 L200.106335,245.6651 Z M66.0000001,176 L63.0708131,185.820953 C63.0708131,185.820953 62.3087809,189.371397 65.7842926,190 C69.4150331,189.932095 69.1166713,186.664911 68.8626606,185.603659 L66.0000001,176 Z" id="Shape"></path>
                    </g>
                </g>
            </g>
            <g id="github" transform="translate(793.000000, 408.000000) rotate(16.000000) translate(-793.000000, -408.000000) translate(614.000000, 227.000000)">
                <g id="Group">
                    <path d="M281,280.001987 C281,299.331649 236.004142,315 180.500998,315 C124.993862,315 80,299.331649 80,280.001987 C80,260.672324 124.993862,245 180.500998,245 C236.004142,244.998013 281,260.670337 281,280.001987 L281,280.001987 L281,280.001987 Z" id="Shape" fill="#9EDCF2" sketch:type="MSShapeGroup"></path>
                    <g id="Clipped" transform="translate(124.000000, 268.000000)">
                        <mask id="mask-6" sketch:name="SVGID_1_" fill="white">
                            <use xlink:href="#path-5"></use>
                        </mask>
                        <g id="SVGID_1_"></g>
                        <path d="M157,12.0019866 C157,31.3316494 112.004142,47 56.5009982,47 C0.993861679,47 -44,31.3316494 -44,12.0019866 C-44,-7.32767624 0.993861679,-23 56.5009982,-23 C112.004142,-23.0019866 157,-7.32966284 157,12.0019866 L157,12.0019866 L157,12.0019866 Z" id="Shape" fill="#7DBCE7" sketch:type="MSShapeGroup" mask="url(#mask-6)"></path>
                    </g>
                    <path d="M66.0000001,176 L63.0708131,185.820953 C63.0708131,185.820953 62.3087809,189.371397 65.7842926,190 C69.4150331,189.932095 69.1166713,186.664911 68.8626606,185.603659 L66.0000001,176 L66.0000001,176 Z" id="Shape" fill="#9EDCF2" sketch:type="MSShapeGroup"></path>
                    <path d="M358.733776,133.859758 L359,132.544568 C329.439133,126.642201 299.105615,126.582238 280.754178,127.343769 C283.768714,116.498445 284.675476,104.018127 284.675476,90.1006938 C284.675476,70.1409799 277.165158,54.172809 264.972902,42.0222881 C267.102694,35.1545155 269.949088,19.9039029 262.130511,0.381919545 C262.130511,0.381919545 248.336907,-3.9913885 217.138663,16.8597767 C204.918383,13.8096542 191.909439,12.3045806 178.882481,12.3045806 C164.550424,12.3045806 150.068241,14.1274586 136.560879,17.8271812 C104.365795,-4.11131468 90.151838,0.381919545 90.151838,0.381919545 C80.8720316,23.54766 86.6088576,40.6991026 88.3523242,44.9604795 C77.4471505,56.7112464 70.78955,71.7120128 70.78955,90.1026926 C70.78955,103.986147 72.3748836,116.442479 76.2421368,127.267816 C57.7345678,126.596229 28.5039783,126.852072 0,132.544568 L0.264222271,133.859758 C28.9383437,128.133283 58.3510864,127.933406 76.7465612,128.628978 C77.5992785,130.869599 78.546075,133.04426 79.6109708,135.144967 C61.4196678,135.730607 30.3615409,138.045182 0.592498425,146.430021 L0.958806573,147.719227 C30.9600444,139.270428 62.292402,137.015816 80.3075568,136.464155 C91.1767002,156.693703 112.604726,169.75966 150.726795,173.863134 C145.316244,177.4929 139.797601,183.665101 137.559719,194.108672 C130.185515,197.630505 106.845881,206.225214 92.8421012,182.174019 C92.8421012,182.174019 85.0035071,167.862828 70.0008865,166.741518 C70.0008865,166.741518 55.4466431,166.519655 68.9940396,175.797944 C68.9940396,175.797944 78.7342333,180.381122 85.453886,197.600523 C85.453886,197.600523 94.2192597,226.972443 136.520845,217.548244 L136.520845,247.889568 C136.520845,247.889568 135.626092,258.620962 125.773804,262.196761 C125.773804,262.196761 119.952907,266.222283 126.224183,268.454909 C126.224183,268.454909 153.537159,270.691532 153.537159,248.337292 L153.537159,215.251658 C153.537159,215.251658 152.45625,202.131734 158.907677,197.570542 L158.907677,251.913091 C158.907677,251.913091 158.461302,264.877111 151.745652,269.796084 C151.745652,269.796084 147.267886,277.841132 157.118172,275.608506 C157.118172,275.608506 175.923992,272.926157 176.818744,251.017643 L177.247105,196.023494 L181.764905,196.023494 L182.195267,251.017643 C183.09002,272.926157 201.89584,275.608506 201.89584,275.608506 C211.744125,277.841132 207.268359,269.796084 207.268359,269.796084 C200.55271,264.877111 200.106335,251.913091 200.106335,251.913091 L200.106335,198.04425 C206.557762,203.061162 205.478854,215.255656 205.478854,215.255656 L205.478854,248.34129 C205.478854,270.69553 232.79183,268.458907 232.79183,268.458907 C239.059103,266.226281 233.242209,262.200759 233.242209,262.200759 C223.389921,258.62496 222.495169,247.893566 222.495169,247.893566 L222.495169,204.52626 C222.495169,187.61467 215.365171,178.660182 208.389302,173.931093 C249.045503,169.905571 268.553914,156.797639 277.543477,136.430176 C295.350456,136.917876 327.397415,139.084542 358.053204,147.719227 L358.41751,146.430021 C327.93787,137.845305 296.10309,135.624672 278.115958,135.100994 C278.968676,133.04426 279.7113,130.903578 280.371856,128.702932 C298.585178,127.92741 329.056811,127.933406 358.733776,133.859758 L358.733776,133.859758 L358.733776,133.859758 Z" id="Shape" fill="#010101" sketch:type="MSShapeGroup"></path>
                    <path d="M244.161407,88.904362 C252.892853,96.8128862 258,106.363781 258,116.653044 C258,164.69688 222.182113,166 178.001996,166 C133.815891,166 98,159.346702 98,116.653044 C98,106.431631 103.0353,96.940604 111.66097,89.0640093 C126.04241,75.9370166 150.386678,82.8876574 178.001996,82.8876574 C205.505551,82.8876574 229.758014,75.867171 244.161407,88.904362 L244.161407,88.904362 L244.161407,88.904362 Z" id="Shape" fill="#F5CCB3" sketch:type="MSShapeGroup"></path>
                    <path d="M151,118.998001 C151,132.254477 143.613476,143 134.501978,143 C125.390481,143 118,132.254477 118,118.998001 C118,105.741524 125.388503,95 134.501978,95 C143.613476,95 151,105.741524 151,118.998001 L151,118.998001 L151,118.998001 Z" id="Shape" fill="#FFFFFF" sketch:type="MSShapeGroup"></path>
                    <path d="M146,120.003998 C146,128.83958 141.072206,136 134.999011,136 C128.92186,136 124,128.83958 124,120.003998 C124,111.164418 128.92186,104 134.999011,104 C141.072206,104 146,111.164418 146,120.003998 L146,120.003998 L146,120.003998 Z" id="Shape" fill="#AF5C51" sketch:type="MSShapeGroup"></path>
                    <path d="M241,118.998001 C241,132.254477 233.613476,143 224.498022,143 C215.388503,143 208,132.254477 208,118.998001 C208,105.741524 215.386524,95 224.498022,95 C233.611497,95 241,105.741524 241,118.998001 L241,118.998001 L241,118.998001 Z" id="Shape" fill="#FFFFFF" sketch:type="MSShapeGroup"></path>
                    <path d="M236,120.003998 C236,128.83958 231.074627,136 225,136 C218.927351,136 214,128.83958 214,120.003998 C214,111.164418 218.925373,104 225,104 C231.074627,104 236,111.164418 236,120.003998 L236,120.003998 L236,120.003998 Z" id="Shape" fill="#AF5C51" sketch:type="MSShapeGroup"></path>
                    <path d="M182,141 C182,143.209012 180.209442,145 177.999041,145 C175.790558,145 174,143.209012 174,141 C174,138.790988 175.790558,137 177.999041,137 C180.209442,137 182,138.790988 182,141 L182,141 L182,141 Z" id="Shape" fill="#AF5C51" sketch:type="MSShapeGroup"></path>
                    <path d="M169.078278,151.861716 C168.826222,151.132469 169.203282,150.336548 169.916416,150.08027 C170.631601,149.823992 171.418508,150.207367 171.668515,150.930364 C172.766907,154.089044 175.713712,156.208027 178.99864,156.208027 C182.285619,156.208027 185.232423,154.08696 186.332864,150.930364 C186.584921,150.201117 187.369779,149.823992 188.084963,150.08027 C188.802196,150.336548 189.173108,151.134553 188.921052,151.861716 C187.435354,156.130935 183.445488,159 178.99864,159 C174.553843,159 170.568074,156.130935 169.078278,151.861716 L169.078278,151.861716 L169.078278,151.861716 Z" id="Shape" fill="#AF5C51" sketch:type="MSShapeGroup"></path>
                    <path d="M77,170.001986 C77,171.108242 75.655208,172 73.9989687,172 C72.3427295,172 71,171.108242 71,170.001986 C71,168.89573 72.3427295,168 73.9989687,168 C75.6531454,168.001986 77,168.897716 77,170.001986 L77,170.001986 L77,170.001986 Z" id="Shape" fill="#C4E5D9" sketch:type="MSShapeGroup"></path>
                    <path d="M85,174.998014 C85,176.10427 83.655208,177 81.9989687,177 C80.3427295,177 79,176.10427 79,174.998014 C79,173.89573 80.3427295,173 81.9989687,173 C83.655208,173 85,173.89573 85,174.998014 L85,174.998014 L85,174.998014 Z" id="Shape" fill="#C4E5D9" sketch:type="MSShapeGroup"></path>
                    <path d="M90,181.001986 C90,182.10427 88.6568088,183 86.9979367,183 C85.3411279,183 84,182.10427 84,181.001986 C84,179.89573 85.3411279,179 86.9979367,179 C88.6568088,179 90,179.89573 90,181.001986 L90,181.001986 L90,181.001986 Z" id="Shape" fill="#C4E5D9" sketch:type="MSShapeGroup"></path>
                    <path d="M94,187 C94,188.105159 92.6588721,189 91.0020633,189 C89.3431912,189 88,188.105159 88,187 C88,185.894841 89.3431912,185 91.0020633,185 C92.6588721,185.001984 94,185.896825 94,187 L94,187 L94,187 Z" id="Shape" fill="#C4E5D9" sketch:type="MSShapeGroup"></path>
                    <path d="M99,194.001986 C99,195.10427 97.6572705,196 96.0010313,196 C94.344792,196 93,195.10427 93,194.001986 C93,192.89573 94.344792,192 96.0010313,192 C97.6572705,192 99,192.897716 99,194.001986 L99,194.001986 L99,194.001986 Z" id="Shape" fill="#C4E5D9" sketch:type="MSShapeGroup"></path>
                    <path d="M106,198.998014 C106,200.10427 104.656809,201 102.997937,201 C101.341128,201 100,200.10427 100,198.998014 C100,197.89573 101.341128,197 102.997937,197 C104.654746,197 106,197.89573 106,198.998014 L106,198.998014 L106,198.998014 Z" id="Shape" fill="#C4E5D9" sketch:type="MSShapeGroup"></path>
                    <path d="M115,203.001986 C115,204.10427 113.657271,205 112.001031,205 C110.342729,205 109,204.10427 109,203.001986 C109,201.89573 110.342729,201 112.001031,201 C113.657271,201 115,201.89573 115,203.001986 L115,203.001986 L115,203.001986 Z" id="Shape" fill="#C4E5D9" sketch:type="MSShapeGroup"></path>
                    <path d="M124,203.001986 C124,204.10427 122.657271,205 121.001031,205 C119.342729,205 118,204.10427 118,203.001986 C118,201.89573 119.342729,201 121.001031,201 C122.655208,201 124,201.89573 124,203.001986 L124,203.001986 L124,203.001986 Z" id="Shape" fill="#C4E5D9" sketch:type="MSShapeGroup"></path>
                    <path d="M134,201 C134,202.105159 132.657271,203 131.001031,203 C129.342729,203 128,202.105159 128,201 C128,199.894841 129.342729,199 131.001031,199 C132.657271,199 134,199.894841 134,201 L134,201 L134,201 Z" id="Shape" fill="#C4E5D9" sketch:type="MSShapeGroup"></path>
                </g>
            </g>
            <g id="dart-logo-wordmark" transform="translate(614.000000, 138.000000) rotate(-20.000000) translate(-614.000000, -138.000000) translate(406.000000, 83.000000)" stroke="#FFFFFF" filter="url(#filter-7)" stroke-width="20" fill="#231F20" sketch:type="MSShapeGroup">
                <path d="M211.767,27.009 C220.828,35.299 225.356,46.664 225.356,61.434 C225.356,76.207 220.938,87.918 212.105,96.525 C203.275,105.133 189.793,109.461 171.669,109.461 L139.774,109.461 L139.774,14.903 L172.757,14.903 C189.701,14.902 202.704,18.717 211.767,27.009 L211.767,27.009 Z M196.204,83.182 C201.41,78.288 204.016,71.161 204.016,61.825 C204.016,52.496 201.41,45.172 196.204,40.143 C190.991,35.114 182.999,32.463 172.212,32.463 L160.037,32.463 L160.037,90.549 L173.846,90.549 C183.539,90.549 190.991,88.074 196.204,83.182 L196.204,83.182 Z M300.554,109.46 L281.643,109.46 L281.643,100.416 C276.24,107.03 269.945,110.336 262.198,110.336 C254.453,110.336 247.977,108.096 242.722,103.611 C237.469,99.126 234.854,93.144 234.854,85.667 C234.854,78.193 237.58,72.71 243.015,68.993 C248.453,65.278 255.89,63.532 265.314,63.532 L280.293,63.532 L280.293,62.901 C280.293,55.11 276.293,51.213 268.051,51.213 C264.513,51.213 260.841,51.915 256.893,53.317 C252.955,54.723 249.654,56.464 246.934,58.549 L237.842,45.364 C247.446,38.386 258.423,34.898 270.745,34.898 C279.622,34.898 286.69,37.119 292.315,41.56 C297.927,45.998 300.554,53.021 300.554,62.626 L300.554,109.46 L300.554,109.46 Z M280.292,81.389 L280.292,78.392 L267.622,78.392 C259.47,78.392 255.393,80.66 255.393,85.735 C255.393,88.362 256.362,90.243 258.311,91.649 C260.258,93.053 263.047,93.689 266.674,93.689 C270.299,93.689 273.434,92.543 276.204,90.325 C278.962,88.104 280.292,85.103 280.292,81.389 Z M354.311,54.075 C348.24,54.075 343.43,56.223 340.441,60.527 C337.453,64.832 335.676,70.515 335.676,77.581 L335.676,109.46 L315.414,109.46 L315.414,36.515 L335.676,36.515 L335.676,45.776 C338.378,42.787 342.064,40.249 346.002,38.165 C349.947,36.08 354.587,34.993 358.64,34.901 L358.64,54.076 L354.311,54.076 L354.311,54.075 Z M391.061,51.374 L391.061,83.562 C391.061,86.372 391.889,88.57 393.339,90.152 C394.785,91.738 396.562,92.533 398.553,92.533 C402.363,92.533 405.603,90.812 408.228,87.366 L415.856,101.637 C409.51,107.439 402.835,110.335 395.818,110.335 C388.792,110.335 382.881,108.026 378.041,103.404 C373.188,98.784 370.798,92.487 370.798,84.51 L370.798,14.901 L391.062,14.901 L391.062,35.163 L412.649,35.163 L401.509,51.373 L391.061,51.373 L391.061,51.374 Z M29.673,29.663 L22.584,22.571 L22.611,73.805 L22.697,76.196 C22.729,77.328 22.946,78.597 23.288,79.913 L79.442,99.717 L93.476,93.499 L93.487,93.479 L29.673,29.663 Z M22.6983126,22.6853077 L0.942,55.543 C-0.87,57.48 0.032,61.474 2.952,64.416 L15.556,77.122 L23.478,79.913 C23.135,78.598 22.919,77.328 22.887,76.196 L22.8,73.805 L22.7740965,22.7610884 L93.495,93.479 L93.501,93.479 L99.73,79.429 L79.905,23.23 C78.588,22.896 77.321,22.685 76.182,22.653 L73.649,22.56 L22.584,22.571 L22.6983126,22.6853077 L22.6983126,22.6853077 Z M93.477,93.499 L79.443,99.717 L23.295,79.913 C24.366,84.031 26.743,88.662 29.295,91.189 L47.616,109.41 L88.373,109.462 L93.489,93.48 L93.477,93.499 Z M91.173,29.246 C88.595,26.65 84.031,24.292 79.905,23.236 L99.729,79.429 L93.5,93.479 L93.494,93.479 L108.712,88.617 L108.744,46.894 L91.173,29.246 L91.173,29.246 Z M77.124,15.357 L64.426,2.747 C61.489,-0.16 57.492,-1.068 55.556,0.741 L22.584,22.571 L73.649,22.56 L76.182,22.653 C77.321,22.685 78.587,22.896 79.905,23.23 L77.124,15.357 L77.124,15.357 Z" id="Shape"></path>
            </g>
            <g id="dart-logo-wordmark-2" transform="translate(615.000000, 139.000000) rotate(-20.000000) translate(-615.000000, -139.000000) translate(407.000000, 84.000000)" sketch:type="MSShapeGroup">
                <path d="M211.767,27.009 C220.828,35.299 225.356,46.664 225.356,61.434 C225.356,76.207 220.938,87.918 212.105,96.525 C203.275,105.133 189.793,109.461 171.669,109.461 L139.774,109.461 L139.774,14.903 L172.757,14.903 C189.701,14.902 202.704,18.717 211.767,27.009 L211.767,27.009 Z M196.204,83.182 C201.41,78.288 204.016,71.161 204.016,61.825 C204.016,52.496 201.41,45.172 196.204,40.143 C190.991,35.114 182.999,32.463 172.212,32.463 L160.037,32.463 L160.037,90.549 L173.846,90.549 C183.539,90.549 190.991,88.074 196.204,83.182 L196.204,83.182 Z" id="Shape" fill="#231F20"></path>
                <path d="M300.554,109.46 L281.643,109.46 L281.643,100.416 C276.24,107.03 269.945,110.336 262.198,110.336 C254.453,110.336 247.977,108.096 242.722,103.611 C237.469,99.126 234.854,93.144 234.854,85.667 C234.854,78.193 237.58,72.71 243.015,68.993 C248.453,65.278 255.89,63.532 265.314,63.532 L280.293,63.532 L280.293,62.901 C280.293,55.11 276.293,51.213 268.051,51.213 C264.513,51.213 260.841,51.915 256.893,53.317 C252.955,54.723 249.654,56.464 246.934,58.549 L237.842,45.364 C247.446,38.386 258.423,34.898 270.745,34.898 C279.622,34.898 286.69,37.119 292.315,41.56 C297.927,45.998 300.554,53.021 300.554,62.626 L300.554,109.46 L300.554,109.46 Z M280.292,81.389 L280.292,78.392 L267.622,78.392 C259.47,78.392 255.393,80.66 255.393,85.735 C255.393,88.362 256.362,90.243 258.311,91.649 C260.258,93.053 263.047,93.689 266.674,93.689 C270.299,93.689 273.434,92.543 276.204,90.325 C278.962,88.104 280.292,85.103 280.292,81.389 L280.292,81.389 Z" id="Shape" fill="#231F20"></path>
                <path d="M354.311,54.075 C348.24,54.075 343.43,56.223 340.441,60.527 C337.453,64.832 335.676,70.515 335.676,77.581 L335.676,109.46 L315.414,109.46 L315.414,36.515 L335.676,36.515 L335.676,45.776 C338.378,42.787 342.064,40.249 346.002,38.165 C349.947,36.08 354.587,34.993 358.64,34.901 L358.64,54.076 L354.311,54.076 L354.311,54.075 Z" id="Shape" fill="#231F20"></path>
                <path d="M391.061,51.374 L391.061,83.562 C391.061,86.372 391.889,88.57 393.339,90.152 C394.785,91.738 396.562,92.533 398.553,92.533 C402.363,92.533 405.603,90.812 408.228,87.366 L415.856,101.637 C409.51,107.439 402.835,110.335 395.818,110.335 C388.792,110.335 382.881,108.026 378.041,103.404 C373.188,98.784 370.798,92.487 370.798,84.51 L370.798,14.901 L391.062,14.901 L391.062,35.163 L412.649,35.163 L401.509,51.373 L391.061,51.373 L391.061,51.374 Z" id="Shape" fill="#231F20"></path>
                <path d="M29.673,29.663 L22.584,22.571 L22.611,73.805 L22.697,76.196 C22.729,77.328 22.946,78.597 23.288,79.913 L79.442,99.717 L93.476,93.499 L93.487,93.479 L29.673,29.663 L29.673,29.663 Z" id="Shape" fill="#00C4B3"></path>
                <path d="M23.289,79.913 L23.294,79.913 C23.289,79.892 23.281,79.868 23.27,79.842 C23.281,79.868 23.281,79.892 23.289,79.913 L23.289,79.913 Z M93.477,93.499 L79.443,99.717 L23.295,79.913 C24.366,84.031 26.743,88.662 29.295,91.189 L47.616,109.41 L88.373,109.462 L93.489,93.48 L93.477,93.499 L93.477,93.499 Z" id="Shape" fill="#22D3C5"></path>
                <path d="M22.774,22.571 L0.942,55.543 C-0.87,57.48 0.032,61.474 2.952,64.416 L15.556,77.122 L23.478,79.913 C23.135,78.598 22.919,77.328 22.887,76.196 L22.8,73.805 L22.774,22.571 L22.774,22.571 Z" id="Shape" fill="#0075C9"></path>
                <path d="M79.905,23.23 C78.588,22.896 77.321,22.685 76.182,22.653 L73.649,22.56 L22.584,22.571 L93.495,93.479 L93.501,93.479 L99.73,79.429 L79.905,23.23 L79.905,23.23 Z" id="Shape" fill="#0075C9"></path>
                <path d="M79.839,23.218 C79.862,23.226 79.886,23.231 79.905,23.237 L79.905,23.231 C79.882,23.226 79.862,23.226 79.839,23.218 L79.839,23.218 Z M91.173,29.246 C88.595,26.65 84.031,24.292 79.905,23.236 L99.729,79.429 L93.5,93.479 L93.494,93.479 L108.712,88.617 L108.744,46.894 L91.173,29.246 L91.173,29.246 Z" id="Shape" fill="#00A8E1"></path>
                <path d="M77.124,15.357 L64.426,2.747 C61.489,-0.16 57.492,-1.068 55.556,0.741 L22.584,22.571 L73.649,22.56 L76.182,22.653 C77.321,22.685 78.587,22.896 79.905,23.23 L77.124,15.357 L77.124,15.357 Z" id="Shape" fill="#00C4B3"></path>
            </g>
        </g>
    </g>
</svg>