<svg viewBox="0 0 1018 599" xmlns="http://www.w3.org/2000/svg" xmlns:xlink="http://www.w3.org/1999/xlink" xmlns:sketch="http://www.bohemiancoding.com/sketch/ns"><title>Stickers!</title><defs><radialGradient cy="0%" fx="50%" fy="0%" r="111.347%" id="a"><stop stop-color="#fff" offset="0%"/><stop stop-color="#FDFDFD" offset="53.957%"/><stop stop-color="#ECECEC" offset="100%"/></radialGradient><path id="b" d="M0 0h1018v599h-1018z"/><radialGradient cy="0%" fx="50%" fy="0%" r="100%" id="c"><stop stop-color="#131313" offset="0%"/><stop offset="100%"/></radialGradient><radialGradient cx="50.826%" cy="19.76%" fx="50.826%" fy="19.76%" id="d"><stop stop-color="#A9D03F" offset="0%"/><stop stop-color="#A9D03F" offset="7.105%"/><stop stop-color="#A1CC3E" offset="24.677%"/><stop stop-color="#94C93D" offset="45.57%"/><stop stop-color="#8DC540" offset="59.659%"/><stop stop-color="#84BC41" offset="79.658%"/><stop stop-color="#79B641" offset="100%"/></radialGradient><path id="e" d="M13.204 75.681c2.228 10.481 7.73 16.674 13.122 20.319l57.458-.066c6.95-4.744 14.058-13.733 14.058-30.705v-43.524s.892-10.77 10.71-14.359c0 0 5.797-4.04-.449-6.281 0 0-27.22-2.253-27.22 20.188v33.205s1.075 12.24-5.354 17.273v-40.98s.445-13.011 7.138-17.947c0 0 4.46-8.074-5.354-5.833 0 0-18.74 2.692-19.633 24.68l-.429 42.103h-4.504l-.425-42.103c-.892-21.988-19.633-24.68-19.633-24.68-9.819-2.241-5.354 5.833-5.354 5.833 6.693 4.937 7.138 17.947 7.138 17.947v41.45c-6.433-4.576-5.352-17.745-5.352-17.745v-33.205c0-22.443-27.22-20.188-27.22-20.188-6.25 2.241-.449 6.281-.449 6.281 9.819 3.589 10.71 14.359 10.71 14.359v30.451l1.043 23.528z"/><filter x="-50%" y="-50%" width="200%" height="200%" filterUnits="objectBoundingBox" id="g"><feOffset dy="2" in="SourceAlpha" result="shadowOffsetOuter1"/><feGaussianBlur stdDeviation="2" in="shadowOffsetOuter1" result="shadowBlurOuter1"/><feColorMatrix values="0 0 0 0 0.0392156863 0 0 0 0 0.0392156863 0 0 0 0 0.0588235294 0 0 0 0.07 0" in="shadowBlurOuter1" result="shadowMatrixOuter1"/><feMerge><feMergeNode in="shadowMatrixOuter1"/><feMergeNode in="SourceGraphic"/></feMerge></filter></defs><g id="Group" sketch:type="MSLayerGroup" fill="none"><g><use fill="url(#a)" sketch:type="MSShapeGroup" xlink:href="#b"/><use xlink:href="#b"/></g><g transform="rotate(3 287.5 452.5) translate(46 370)" sketch:type="MSShapeGroup"><rect stroke="#979797" fill="url(#c)" width="483" height="165" rx="8"/><path d="M177.423 102.567c-.683-.524-.428-1.075-.014-1.552l5.896-6.966c.477-.529.931-.46 1.472.01 5.299 4.574 10.066 7.256 17.659 7.256 4.855 0 9.711-1.857 9.711-6.735 0-1.598-.536-2.964-1.484-3.926-6.115-6.206-31.332-3-31.332-22.614 0-8.586 6.236-18.041 21.043-18.041 9.055 0 15.91 3.158 21.283 7.327.81.64.611 1.085.213 1.577l-5.199 7.353c-.501.644-.839.657-1.782 0-3.042-2.349-8.288-5.492-14.836-5.492-5.396 0-8.87 2.459-8.87 6.394 0 11.725 32.816 4.205 32.816 26.54 0 10.819-8.364 18.301-21.724 18.301-9.438 0-17.571-3.2-24.853-9.433z" fill="#fff"/><path d="M252.704 65c-7.182 0-10.888 3.2-14.118 6.607v-4.756c0-.623-.255-.918-.906-.918h-9.576c-.983 0-1.103.243-1.103 1.088v56.046c0 .643.257.933.946.933h9.537c.734 0 1.103-.228 1.103-1.088v-17.514c2.469 3.131 7.373 6.34 14.074 6.34 10.517 0 21.34-7.708 21.34-23.32 0-16.602-11.773-23.417-21.296-23.417zm-2.603 10c5.97 0 11.899 4.71 11.899 13.629 0 7.986-5.204 13.371-11.899 13.371-7.191 0-12.101-6.398-12.101-13.45 0-7.004 4.593-13.55 12.101-13.55z" fill="#fff"/><path d="M327 89v-.173c0-3.325-.62-6.436-1.859-9.333-1.239-2.897-2.943-5.42-5.111-7.57-2.168-2.15-4.745-3.842-7.731-5.075-2.986-1.233-6.224-1.849-9.714-1.849-3.549 0-6.816.631-9.801 1.891-2.985 1.261-5.575 2.981-7.772 5.161-2.197 2.18-3.914 4.718-5.154 7.613-1.239 2.896-1.859 6.007-1.859 9.334v.171c0 3.327.62 6.439 1.859 9.335 1.239 2.897 2.943 5.42 5.111 7.57 2.168 2.15 4.745 3.842 7.731 5.075 2.985 1.233 6.224 1.849 9.714 1.849 3.549 0 6.816-.631 9.801-1.893 2.985-1.262 5.575-2.982 7.772-5.161 2.197-2.179 3.914-4.717 5.154-7.613 1.239-2.897 1.859-6.007 1.859-9.333zm-24.919 13c-8.547 0-13.081-7.38-13.081-13.623 0-7.712 5.558-13.377 12.893-13.377 6.438 0 13.107 4.986 13.107 13.662 0 8.353-6.213 13.338-12.919 13.338z" fill="#fff"/><path d="M347.913 101.369c2.53 0 4.437-.847 5.376-1.281.903-.507 1.554-.26 1.554.732v7.97c0 .487-.265.76-.681.991-2.558 1.294-5.132 2.22-9.245 2.22-9 0-13.4-4.954-13.4-13.572v-22.953h-4.728c-.613 0-.788-.324-.788-.797v-8.847c0-.407.201-.638.63-.638h4.886v-11.238c0-.522.172-.956.946-.956h9.614c.833 0 1.103.36 1.103 1.116v11.078h10.984c.482 0 .836.255.836.956v8.368c0 .653-.295.956-.946.956h-10.875v20.881c0 2.8.792 5.012 4.734 5.012z" fill="#fff"/><path d="M359.973 110c-.641 0-.973-.294-.973-.936v-43.128c0-.6.265-.936.973-.936h10.035c.76 0 .992.408.992.944v43.12c0 .735-.338.936-.973.936h-10.054z" fill="#fff"/><path d="M373 53c0 3.866-3.134 7-7 7s-7-3.134-7-7 3.134-7 7-7 7 3.134 7 7z" fill="#fff"/><path d="M382.283 110.461c-.544 0-.785-.295-.785-.783v-34.306h-4.712l-.785-.783v-8.522c0-.535.16-.799.785-.799h4.712v-2.115c0-8.356 3.385-15.153 14.244-15.153 3.352 0 6.814.791 8.112 1.104.55.168.732.408.732.891v8.302c0 .847-.608 1-1.674.618-.821-.281-2.77-.835-4.906-.835-4.028 0-5.2 2.374-5.2 6.013v1.175h17.12c.474 0 .687.192.952.891l11.538 30.175 10.491-29.982c.28-.764.439-1.006 1.049-1.006h10.209c.986 0 .979.684.588 1.619l-17.1 44.23c-2.547 5.828-5.044 12.805-15.225 12.805-4.867 0-7.497-1.147-10.72-2.656-.748-.337-.411-1.084-.006-1.848l2.969-6.51c.342-.755.853-.654 1.524-.331.806.406 2.857 1.409 5.154 1.409 2.97 0 4.218-1.884 5.382-4.302l-14.344-34.391h-9.424v34.306c0 .507-.245.783-.785.783h-9.895z" fill="#fff"/><g><path d="M53.87 98.709l.219 2.141 1.66.765c.096-2.532 1.677-4.07 3.766-4.442 6.62-1.433 14.762-2.803 24.248-2.803 14.915 0 27.782 3.683 38.193 10.005 1.537.93 2.041 2.089 2.26 3.626l5.784-3.728-1.462-5.738-43.173-11.534-40.365 5.126 8.87 6.583z" stroke="#008080" stroke-width=".5" fill="#7A9F3F"/><path d="M50.612 83.105l1.966-.761c.068-2.529 1.397-4.632 4.24-5.428 7.354-2.218 15.99-3.606 25.424-3.606 18.096 0 34.682 4.866 46.798 12.365 1.939 1.222 2.684 2.125 3.049 5.325l8.911-5.027-37.427-17.973-62.573 3.748 9.612 11.357z" stroke="#000080" stroke-width=".5" fill="#82A73E"/><path d="M48.898 61.854c-.2-3.733 1.732-6.419 4.562-7.244 9.304-2.74 19.281-4.083 31.07-4.083 19.609 0 39.309 4.162 53.721 12.603 2.833 1.563 3.651 3.663 3.805 6.87l8.943-5.987-26.845-23.013-82.155 8.919 6.898 11.935z" stroke="#000" stroke-width=".5" fill="#81A83E"/><path d="M93 16c-35.898 0-65 29.1-65 64.999 0 35.899 29.102 65.001 65 65.001 35.898 0 65-29.102 65-65.001s-29.102-64.999-65-64.999zm-9.822 34c18.965 0 38.919 4.001 53.494 12.78 1.965 1.141 3.328 2.861 3.328 6.015 0 3.611-2.83 6.205-6.092 6.205-1.315 0-2.095-.328-3.328-1.02-11.691-7.189-29.833-11.147-47.378-11.147-8.758 0-17.653.913-25.801 3.181-.938.242-2.124.724-3.312.724-3.445 0-6.089-2.795-6.089-6.328 0-3.599 2.175-5.62 4.522-6.331 9.207-2.782 19.484-4.078 30.656-4.078zm-.526 22c17.002 0 33.45 4.198 46.382 11.87 2.168 1.232 2.966 2.797 2.966 5.09 0 2.788-2.239 5.041-5.063 5.041-1.409 0-2.296-.565-3.254-1.117-10.566-6.216-25.211-10.345-41.248-10.345-8.225 0-15.324 1.142-21.201 2.693-1.266.345-1.976.717-3.161.717-2.794 0-5.074-2.257-5.074-5.049 0-2.738 1.34-4.623 4.041-5.378 7.302-1.988 14.758-3.522 25.611-3.522zm.111 21c14.172 0 26.802 3.23 37.671 9.7 1.618.938 2.566 1.897 2.566 4.276 0 2.319-1.899 4.024-4.029 4.024-1.047 0-1.762-.361-2.741-.953-9.386-5.641-21.09-8.606-33.511-8.606-6.93 0-13.904.883-20.427 2.232-1.061.228-2.396.635-3.192.635-2.459 0-4.1-1.941-4.1-4.043 0-2.703 1.57-4.049 3.523-4.42 7.999-1.811 15.966-2.845 24.24-2.845z" fill="url(#d)"/></g></g><g id="Group" sketch:type="MSShapeGroup"><path d="M156.009 45.287l-118.85 51.511 30.475 158.598 106.705 49.362 99.245-64.579 8.032-161.293-125.606-33.6z" id="Shape" fill="#B2B2B2"/><path d="M270.315 89.369l-113.434-30.102 16.31 232.534 89.227-58.02 7.897-144.412z" id="Shape" fill="#B52E31"/><path d="M51.801 105.385l26.37 142.008 94.021 44.478-16.31-232.534-104.082 46.048z" id="Shape" fill="#E23237"/><path d="M189.881 172.287l-29.187-51.107-18.717 54.467 47.904-3.36zm11.844 22.616l-67.692 4.748-12.477 39.085-28.132 2.498 63.7-173.96 89.992 163.178-26.108 1.831-19.282-37.38z" id="Shape" fill="#F2F2F2"/><path d="M157.442 67.251l3.982 53.902 29.203 51.625-25.602 1.796 1.511 22.369 35.4-2.449 19.243 37.274 26.933-1.385-90.671-163.132z" id="Shape" fill="#B2B2B2"/></g><path d="M735.448 461.147c-33.685-3.758-59.104 1.377-62.92 14.663-5.335 18.576 33.58 46.051 86.922 61.371 53.339 15.319 100.904 12.68 106.239-5.895 3.893-13.555-15.773-31.85-47.412-46.702l.05-.302 11.969-41.676c4.668-16.252.287-26.825-5.111-33.295 40.182 7.353 62.547.14 76.807-16.952 16.978 5.383 47.177 16.311 74.254 33.069l.706-1.138c-26.922-16.662-56.902-27.583-74.043-33.05 1.387-1.741 2.692-3.593 3.934-5.526 17.717 4.282 46.999 12.698 73.883 26.584l.619-1.19c-26.779-13.831-55.913-22.261-73.759-26.594 5.89-9.59 10.206-21.334 14.047-34.708 5.509-19.181 2.699-36.6-5.665-51.641 3.942-6.012 10.887-19.882 8.761-40.801 0 0-12.049-8.01-47.785 3.417-10.902-6.304-22.988-11.341-35.507-14.936-13.773-3.956-28.194-6.201-42.195-6.374-24.884-29.969-39.784-29.574-39.784-29.574-15.312 19.701-14.532 37.767-14.033 42.343-13.723 8.283-24.261 20.861-29.337 38.534-3.832 13.342-5.746 25.75-5.018 37.221-17.6-5.753-45.762-13.575-74.725-15.972l-.109 1.337c29.136 2.411 57.457 10.337 74.943 16.082.201 2.389.511 4.74.954 7.052-17.643-4.458-48.129-10.806-79.051-10.964l-.004 1.34c31.163.161 61.896 6.642 79.361 11.084 4.862 22.44 21.848 40.911 57.351 55.376-6.201 1.995-13.208 6.403-18.241 15.822-8.059 1.349-32.86 3.167-39.68-23.811 0 0-3.583-15.917-17.691-21.135 0 0-13.925-4.23-3.467 8.425 0 0 8.095 7.093 9.8 25.495 0 0 .317 30.646 43.57 33.264l-8.374 29.158s-.083.22-.26.597zm17.058 2.547c1.749.324 3.513.669 5.289 1.036l13.314-46.358c-7.459 2.603-10.041 15.509-10.041 15.509l-8.562 29.813zm22.764 5.236c1.164.319 2.33.646 3.5.982l1.582.459 13.15-47.177-4.342-1.247-13.89 46.983zm22.157 7.032c1.704.619 3.386 1.249 5.046 1.89l8.51-29.631s4.403-11.421-.413-18.023l-13.143 45.764zm-109.649-103.962l-5.526 8.629s-1.712 3.202 1.454 4.765c3.508.937 4.123-2.285 4.172-3.375l-.1-10.019z" id="Shape" stroke="#fff" stroke-width="20" fill="#fff" sketch:type="MSShapeGroup"/><g><path d="M863.697 531.293c-5.335 18.576-52.9 21.214-106.239 5.895-53.342-15.32-92.257-42.796-86.922-61.371 5.335-18.576 52.9-21.219 106.242-5.899 53.339 15.317 92.255 42.797 86.919 61.375z" id="Shape" fill="#9EDCF2" sketch:type="MSShapeGroup"/><g transform="matrix(.961 .276 -.276 .961 572.841 679.22)"><mask id="f" sketch:name="SVGID_1_"><use xlink:href="#e"/></mask><path d="M157 12.002c0 19.33-44.996 34.998-100.499 34.998-55.507 0-100.501-15.668-100.501-34.998s44.994-35.002 100.501-35.002c55.503-.002 100.499 15.67 100.499 35.002z" id="Shape" fill="#7DBCE7" sketch:type="MSShapeGroup" mask="url(#f)"/></g><path d="M685.787 372.007l-5.526 8.629s-1.712 3.202 1.454 4.765c3.508.937 4.123-2.285 4.172-3.375l-.1-10.019z" id="Shape" fill="#9EDCF2" sketch:type="MSShapeGroup"/><path d="M978.735 412.305l.619-1.19c-26.779-13.831-55.913-22.261-73.759-26.594 5.89-9.59 10.206-21.334 14.047-34.708 5.509-19.181 2.699-36.6-5.665-51.641 3.942-6.012 10.887-19.882 8.761-40.801 0 0-12.049-8.01-47.785 3.417-10.902-6.304-22.988-11.341-35.507-14.936-13.773-3.956-28.194-6.201-42.195-6.374-24.884-29.969-39.784-29.574-39.784-29.574-15.312 19.701-14.532 37.767-14.033 42.343-13.723 8.283-24.261 20.861-29.337 38.534-3.832 13.342-5.746 25.75-5.018 37.221-17.6-5.753-45.762-13.575-74.725-15.972l-.109 1.337c29.136 2.411 57.457 10.337 74.943 16.082.201 2.389.511 4.74.954 7.052-17.643-4.458-48.129-10.806-79.051-10.964l-.004 1.34c31.163.161 61.896 6.642 79.361 11.084 4.862 22.44 21.848 40.911 57.351 55.376-6.201 1.995-13.208 6.403-18.241 15.822-8.059 1.349-32.86 3.167-39.68-23.811 0 0-3.583-15.917-17.691-21.135 0 0-13.925-4.23-3.467 8.425 0 0 8.095 7.093 9.8 25.495 0 0 .317 30.646 43.57 33.264l-8.374 29.158s-3.822 10.066-14.277 10.783c0 0-6.705 2.262-1.294 6.138 0 0 25.63 9.688 31.8-11.795l9.132-31.795s2.582-12.907 10.041-15.509l-14.999 52.223s-4.007 12.335-11.818 15.209c0 0-6.524 6.495 3.559 7.069 0 0 18.813 2.613 25.719-18.194l15.59-52.731 4.342 1.247-14.765 52.968c-5.187 21.301 12.145 29.069 12.145 29.069 8.848 4.864 6.767-4.103 6.767-4.103-5.096-6.581-1.947-19.162-1.947-19.162l14.868-51.768c4.815 6.602.413 18.023.413 18.023l-9.132 31.795c-6.17 21.482 20.695 26.871 20.695 26.871 6.639-.416 2.16-5.89 2.16-5.89-8.481-6.156-6.379-16.715-6.379-16.715l11.969-41.676c4.668-16.252.287-26.825-5.111-33.295 40.182 7.353 62.547.14 76.807-16.952 16.978 5.383 47.177 16.311 74.254 33.069l.706-1.138c-26.922-16.662-56.902-27.583-74.043-33.05 1.387-1.741 2.692-3.593 3.934-5.526 17.717 4.282 46.999 12.698 73.883 26.584z" id="Shape" fill="#010101" sketch:type="MSShapeGroup"/><path d="M881.039 337.481c6.208 10.01 8.48 20.598 5.64 30.486-13.26 46.17-48.041 37.537-90.498 25.343-42.463-12.195-75.046-28.474-63.262-69.503 2.821-9.823 10.28-17.554 20.743-22.743 17.444-8.646 38.92 4.753 65.458 12.375 26.431 7.591 51.675 7.538 61.919 24.042z" id="Shape" fill="#F5CCB3" sketch:type="MSShapeGroup"/><path d="M783.205 340.688c-3.659 12.739-13.723 21.027-22.479 18.512-8.756-2.515-12.893-14.881-9.234-27.62 3.659-12.739 13.724-21.023 22.482-18.508 8.756 2.515 12.89 14.876 9.231 27.616z" id="Shape" fill="#fff" sketch:type="MSShapeGroup"/><path d="M778.122 340.275c-2.439 8.491-9.151 14.012-14.987 12.336-5.84-1.677-8.594-9.917-6.155-18.408 2.44-8.495 9.147-14.021 14.987-12.344 5.836 1.676 8.595 9.921 6.155 18.416z" id="Shape" fill="#AF5C51" sketch:type="MSShapeGroup"/><path d="M869.695 365.528c-3.659 12.739-13.723 21.027-22.483 18.511-8.754-2.514-12.889-14.88-9.23-27.619 3.659-12.739 13.722-21.023 22.478-18.509 8.758 2.515 12.894 14.877 9.235 27.617z" id="Shape" fill="#fff" sketch:type="MSShapeGroup"/><path d="M864.612 365.115c-2.439 8.491-9.148 14.013-14.986 12.336-5.836-1.676-8.595-9.917-6.156-18.408 2.44-8.495 9.15-14.02 14.988-12.344 5.838 1.677 8.594 9.921 6.154 18.416zM806.923 370.388c-.61 2.123-2.825 3.35-4.949 2.74-2.122-.61-3.349-2.825-2.739-4.948.61-2.123 2.825-3.35 4.947-2.74 2.124.61 3.351 2.825 2.741 4.948zM791.507 377.26c-.041-.77.541-1.431 1.297-1.481.758-.049 1.408.537 1.449 1.301.184 3.339 2.431 6.188 5.588 7.095 3.159.907 6.576-.318 8.505-3.048.443-.631 1.302-.777 1.918-.333.619.444.755 1.313.312 1.943-2.606 3.693-7.232 5.349-11.506 4.121-4.271-1.227-7.31-5.084-7.563-9.598z" id="Shape" fill="#AF5C51" sketch:type="MSShapeGroup"/><path d="M698.013 369.279c-.305 1.063-1.844 1.549-3.435 1.092-1.592-.457-2.636-1.685-2.331-2.748.305-1.063 1.843-1.553 3.435-1.096 1.589.458 2.636 1.691 2.331 2.752zM704.323 376.288c-.305 1.063-1.845 1.553-3.437 1.096-1.592-.457-2.635-1.689-2.329-2.752.304-1.059 1.842-1.549 3.433-1.092 1.592.457 2.637 1.689 2.333 2.748zM707.47 383.438c-.304 1.059-1.842 1.549-3.436 1.092-1.592-.457-2.634-1.688-2.33-2.748.305-1.063 1.841-1.554 3.434-1.096 1.594.458 2.638 1.689 2.332 2.752zM709.659 390.306c-.305 1.062-1.841 1.552-3.433 1.095-1.594-.458-2.638-1.689-2.333-2.751.305-1.062 1.843-1.551 3.437-1.093 1.592.459 2.633 1.689 2.329 2.749zM712.531 398.415c-.304 1.059-1.842 1.549-3.433 1.092-1.592-.457-2.637-1.689-2.333-2.748.305-1.063 1.845-1.553 3.437-1.096 1.592.457 2.634 1.69 2.329 2.752zM717.88 405.148c-.305 1.063-1.843 1.553-3.438 1.095-1.592-.457-2.634-1.688-2.328-2.751.304-1.059 1.84-1.55 3.432-1.093 1.592.457 2.638 1.689 2.334 2.749zM725.423 411.48c-.304 1.059-1.842 1.549-3.433 1.092-1.594-.458-2.637-1.689-2.333-2.748.305-1.063 1.843-1.553 3.437-1.096 1.592.457 2.635 1.689 2.329 2.752zM734.072 413.964c-.304 1.059-1.842 1.549-3.433 1.092-1.594-.458-2.637-1.689-2.333-2.748.305-1.063 1.843-1.553 3.437-1.096 1.59.457 2.635 1.689 2.329 2.752zM744.235 414.8c-.305 1.062-1.842 1.551-3.434 1.094-1.594-.458-2.637-1.688-2.332-2.75.305-1.062 1.842-1.551 3.436-1.094 1.592.457 2.635 1.688 2.33 2.75z" id="Shape" fill="#C4E5D9" sketch:type="MSShapeGroup"/></g><path d="M607.968 110.4c11.353 4.694 19.496 13.828 24.547 27.712 5.052 13.887 4.905 26.406-.455 37.517-5.356 11.111-16.549 19.791-33.586 25.989l-29.981 10.908-32.339-88.885 31.004-11.28c15.927-5.796 29.455-6.657 40.81-1.962zm4.582 58.125c3.22-6.381 3.232-13.971.039-22.747-3.191-8.769-8.145-14.763-14.759-17.709-6.62-2.944-15.039-2.703-25.179.986l-11.444 4.164 19.865 54.601 12.98-4.723c9.111-3.315 15.27-8.19 18.497-14.571zm107.076-10.986l-17.776 6.468-3.093-8.501c-2.817 8.065-7.603 13.326-14.886 15.975-7.28 2.649-14.134 2.758-20.607.339-6.472-2.419-10.976-7.148-13.533-14.177-2.556-7.026-1.869-13.112 1.969-18.465 3.841-5.352 10.235-9.537 19.093-12.76l14.08-5.123-.216-.593c-2.665-7.324-7.757-9.619-15.505-6.8-3.326 1.21-6.537 3.126-9.769 5.794-3.221 2.668-5.728 5.434-7.572 8.324l-13.056-9.284c6.641-9.844 15.767-16.877 27.349-21.091 8.344-3.036 15.748-3.365 22.554-1.115 6.793 2.252 11.664 7.956 14.949 16.984l16.017 44.024zm-28.647-19.457l-1.025-2.817-11.91 4.333c-7.663 2.788-10.72 6.314-8.984 11.085.898 2.469 2.453 3.906 4.766 4.561 2.31.654 5.15.298 8.559-.943 3.407-1.24 5.962-3.389 7.808-6.421 1.833-3.031 2.057-6.307.787-9.798zm60.236-50.99c-5.707 2.076-9.494 5.74-10.831 10.808-1.336 5.069-1.063 11.018 1.353 17.66l10.903 29.966-19.046 6.93-24.947-68.568 19.046-6.93 3.167 8.705c1.518-3.734 4.114-7.38 7.103-10.686 2.995-3.309 6.985-5.918 10.763-7.39l6.558 18.024-4.069 1.481v-.001zm33.621-15.107l11.008 30.257c.961 2.641 2.491 4.424 4.395 5.416 1.902.996 3.844 1.136 5.715.455 3.581-1.303 6.038-4.029 7.327-8.166l12.051 10.806c-3.981 7.624-9.265 12.629-15.861 15.029-6.604 2.403-12.95 2.254-19.081-.435-6.142-2.683-10.542-7.785-13.27-15.283l-23.806-65.432 19.048-6.93 6.93 19.046 20.292-7.383-4.928 19.047-9.821 3.573v.001zm-347.13 103.186l-9.089-4.242 17.547 48.151.899 2.218c.417 1.053 1.055 2.172 1.827 3.292l59.558-.589 11.065-10.645.003-.023-81.81-38.163zm-8.943-4.174l-9.214 38.327c-1.041 2.44 1.173 5.886 4.924 7.653l16.193 7.633 8.401-.086c-.772-1.119-1.41-2.239-1.827-3.292l-.9-2.218-17.481-47.972 90.663 42.288.006-.002 1.05-15.337-37.856-46.047c-1.352.136-2.615.371-3.697.731l-2.413.779-47.997 17.475.147.068zm90.75 42.359l-11.065 10.645-59.552.587c2.415 3.505 6.233 7.045 9.496 8.547l23.453 10.862 38.329-13.89-.657-16.773-.005.022zm-24.14-59.61c-3.311-1.559-8.408-2.214-12.647-1.796l37.853 46.042-1.05 15.337-.006.002 12.642-9.775-14.239-39.231-22.552-10.58zm-17.956-8.251l-16.249-7.511c-3.755-1.728-7.823-1.215-9.024 1.148l-23.528 31.797 47.997-17.475 2.413-.779c1.082-.359 2.344-.594 3.697-.731l-5.307-6.45z" id="Shape" stroke="#fff" filter="url(#g)" stroke-width="20" fill="#231F20" sketch:type="MSShapeGroup"/><g sketch:type="MSShapeGroup"><path d="M608.968 111.4c11.353 4.694 19.496 13.828 24.547 27.712 5.052 13.887 4.905 26.406-.455 37.517-5.356 11.111-16.549 19.791-33.586 25.989l-29.981 10.908-32.339-88.885 31.004-11.28c15.927-5.796 29.455-6.657 40.81-1.962zm4.582 58.125c3.22-6.381 3.232-13.971.039-22.747-3.191-8.769-8.145-14.763-14.759-17.709-6.62-2.944-15.039-2.703-25.179.986l-11.444 4.164 19.865 54.601 12.98-4.723c9.111-3.315 15.27-8.19 18.497-14.571zM720.626 158.539l-17.776 6.468-3.093-8.501c-2.817 8.065-7.603 13.326-14.886 15.975-7.28 2.649-14.134 2.758-20.607.339-6.472-2.419-10.976-7.148-13.533-14.177-2.556-7.026-1.869-13.112 1.969-18.465 3.841-5.352 10.235-9.537 19.093-12.76l14.08-5.123-.216-.593c-2.665-7.324-7.757-9.619-15.505-6.8-3.326 1.21-6.537 3.126-9.769 5.794-3.221 2.668-5.728 5.434-7.572 8.324l-13.056-9.284c6.641-9.844 15.767-16.877 27.349-21.091 8.344-3.036 15.748-3.365 22.554-1.115 6.793 2.252 11.664 7.956 14.949 16.984l16.017 44.024zm-28.647-19.457l-1.025-2.817-11.91 4.333c-7.663 2.788-10.72 6.314-8.984 11.085.898 2.469 2.453 3.906 4.766 4.561 2.31.654 5.15.298 8.559-.943 3.407-1.24 5.962-3.389 7.808-6.421 1.833-3.031 2.057-6.307.787-9.798zM752.216 88.092c-5.707 2.076-9.494 5.74-10.831 10.808-1.336 5.069-1.063 11.018 1.353 17.66l10.903 29.966-19.046 6.93-24.947-68.568 19.046-6.93 3.167 8.705c1.518-3.734 4.114-7.38 7.103-10.686 2.995-3.309 6.985-5.918 10.763-7.39l6.558 18.024-4.069 1.481v-.001zM785.837 72.985l11.008 30.257c.961 2.641 2.491 4.424 4.395 5.416 1.902.996 3.844 1.136 5.715.455 3.581-1.303 6.038-4.029 7.327-8.166l12.051 10.806c-3.981 7.624-9.265 12.629-15.861 15.029-6.604 2.403-12.95 2.254-19.081-.435-6.142-2.683-10.542-7.785-13.27-15.283l-23.806-65.432 19.048-6.93 6.93 19.046 20.292-7.383-4.928 19.047-9.821 3.573v.001z" id="Shape" fill="#231F20"/><path d="M438.707 176.171l-9.089-4.242 17.547 48.151.899 2.218c.417 1.053 1.055 2.172 1.827 3.292l59.558-.589 11.065-10.645.003-.023-81.81-38.163z" id="Shape" fill="#00C4B3"/><path d="M449.892 225.589l.005-.002-.047-.059.042.06zm70.623-11.233l-11.065 10.645-59.552.587c2.415 3.505 6.233 7.045 9.496 8.547l23.453 10.862 38.329-13.89-.657-16.773-.005.022z" id="Shape" fill="#22D3C5"/><path d="M429.797 171.864l-9.246 38.46c-1.041 2.44 1.173 5.886 4.924 7.653l16.193 7.633 8.401-.086c-.772-1.119-1.41-2.239-1.827-3.292l-.9-2.218-17.546-48.151zM483.725 152.945c-1.352.136-2.615.371-3.697.731l-2.413.779-47.997 17.475 90.907 42.402.006-.002 1.05-15.337-37.856-46.047z" id="Shape" fill="#0075C9"/><path d="M483.659 152.956l.069-.005-.002-.006-.066.01zm12.716 1.79c-3.311-1.559-8.408-2.214-12.647-1.796l37.853 46.042-1.05 15.337-.006.002 12.642-9.775-14.239-39.231-22.552-10.58z" id="Shape" fill="#00A8E1"/><path d="M478.419 146.495l-16.249-7.511c-3.755-1.728-7.823-1.215-9.024 1.148l-23.528 31.797 47.997-17.475 2.413-.779c1.082-.359 2.344-.594 3.697-.731l-5.307-6.45z" fill="#00C4B3"/></g></g></svg>