<svg xmlns="http://www.w3.org/2000/svg" width="100%" height="100%" xmlns:xlink="http://www.w3.org/1999/xlink">
    <style>
        .square { visibility: visible; }
        .landscape { visibility: hidden; }
        @media (min-aspect-ratio: 1118/335) {
            .square { visibility: hidden; }
            .landscape { visibility: visible; }
        } 
    </style>
    <symbol id="c" viewBox="0 0 335 335">
        <path d="M0 167C0 259 75.7738 335 167.5 335C259.226 335 335 259 335 167C335 75 259.226 0 167.5 0C75.7738 0 0 75 0 167ZM229.315 245C190.432 221 140.58 215 82.753 228C68.7946 230 66.8006 210 78.7649 208C142.574 193 196.414 200 240.283 227C251.25 234 240.283 251 229.315 245ZM246.265 200C201.399 172 132.604 164 79.7619 180C62.8125 185 56.8304 159 72.7827 155C133.601 137 208.378 146 260.223 178C274.182 187 260.223 209 246.265 200ZM71.7857 129C54.8363 135 43.869 106 62.8125 99C121.637 81 221.339 84 283.155 121C300.104 130 284.152 158 266.205 148C212.366 116 122.634 113 71.7857 129Z" fill="black" />
    </symbol>
    <symbol id="s" viewBox="0 0 732 203">
        <path d="M64.75 143C47.75 143 31.75 137 17.75 123C16.75 123 16.75 124 16.75 124L0.75 143C-0.25 144 -0.25 145 0.75 146C18.75 162 40.75 170 64.75 170C98.75 170 119.75 151 119.75 123C119.75 99 104.75 86 69.75 77C40.75 70 35.75 65 35.75 55C35.75 45 45.75 39 58.75 39C71.75 39 83.75 44 97.75 54C97.75 54 98.75 55 99.75 55C100.75 55 100.75 54 100.75 54L114.75 34C115.75 33 115.75 33 114.75 32C98.75 19 79.75 12 58.75 12C27.75 12 5.75 31 5.75 58C5.75 87 25.75 96 57.75 104C85.75 110 89.75 116 89.75 126C89.75 137 79.75 143 64.75 143ZM159.75 66V53C159.75 52 158.75 51 157.75 51H131.75C130.75 51 129.75 52 129.75 53V200C129.75 201 130.75 202 131.75 202H157.75C158.75 202 159.75 201 159.75 200V154C169.75 165 180.75 170 195.75 170C222.75 170 249.75 149 249.75 109C249.75 69 222.75 49 195.75 49C180.75 49 169.75 54 159.75 66ZM189.75 144C171.75 144 158.75 129 158.75 109C158.75 89 171.75 75 189.75 75C207.75 75 219.75 89 219.75 109C219.75 129 207.75 144 189.75 144ZM257.75 110C257.75 144 284.75 170 319.75 170C354.75 170 381.75 143 381.75 109C381.75 75 355.75 49 320.75 49C285.75 49 257.75 76 257.75 110ZM287.75 109C287.75 89 300.75 75 319.75 75C338.75 75 352.75 90 352.75 110C352.75 130 339.75 144 320.75 144C301.75 144 287.75 129 287.75 109ZM427.75 51V22C427.75 21 427.75 20 426.75 20H400.75C399.75 20 398.75 21 398.75 22V51H385.75C384.75 51 383.75 52 383.75 53V75C383.75 76 384.75 77 385.75 77H398.75V135C398.75 158 409.75 170 432.75 170C441.75 170 450.75 168 457.75 164C458.75 164 458.75 163 458.75 162V141C458.75 140 458.75 139 457.75 139H455.75C450.75 142 444.75 143 439.75 143C431.75 143 427.75 139 427.75 131V77H457.75C458.75 77 459.75 76 459.75 75V53C459.75 52 458.75 51 457.75 51H427.75ZM556.75 48C556.75 37 560.75 33 569.75 33C574.75 33 579.75 33 584.75 35H585.75C585.75 35 586.75 34 586.75 33V12C586.75 11 586.75 10 585.75 10C580.75 8 573.75 7 563.75 7C539.75 7 527.75 21 527.75 46V51H514.75C513.75 51 512.75 52 512.75 53V75C512.75 76 513.75 77 514.75 77H527.75V166C527.75 167 528.75 168 529.75 168H555.75C556.75 168 556.75 167 556.75 166V77H581.75L618.75 166C614.75 175 610.75 177 604.75 177C599.75 177 594.75 176 589.75 173H588.75L587.75 174L578.75 193C578.75 194 578.75 196 579.75 196C588.75 201 596.75 203 606.75 203C625.75 203 636.75 194 645.75 170L690.75 54V52C690.75 51 689.75 51 688.75 51H661.75C660.75 51 660.75 52 660.75 53L632.75 131L602.75 53C602.75 52 601.75 51 600.75 51H556.75V48ZM473.75 51C472.75 51 471.75 52 471.75 53V166C471.75 167 472.75 168 473.75 168H499.75C500.75 168 500.75 167 500.75 166V53C500.75 52 500.75 51 499.75 51H473.75ZM467.75 18C467.75 28 476.75 37 486.75 37C496.75 37 504.75 28 504.75 18C504.75 8 496.75 0 486.75 0C476.75 0 467.75 8 467.75 18ZM712.75 87C722.75 87 731.75 79 731.75 69C731.75 59 722.75 51 712.75 51C702.75 51 694.75 59 694.75 69C694.75 79 702.75 87 712.75 87ZM712.75 53C721.75 53 729.75 60 729.75 69C729.75 78 721.75 85 712.75 85C703.75 85 696.75 78 696.75 69C696.75 60 703.75 53 712.75 53ZM716.75 71C719.75 70 721.75 68 721.75 65C721.75 61 717.75 59 713.75 59H705.75V78H709.75V72H713.75L717.75 78H722.75L716.75 71ZM713.75 62C715.75 62 717.75 63 717.75 65C717.75 67 715.75 68 713.75 68H709.75V62H713.75Z" fill="black" />
    </symbol>
    <symbol id="landscape" viewBox="0 0 1118 335">
        <use xlink:href="#c" x="0" y="0" width="335" height="335" />
        <use xlink:href="#s" x="386" y="77" width="732" height="203" />
    </symbol>

    <use class="square" xlink:href="#c" x="0" y="0" width="100%" height="100%" />
    <use class="landscape" xlink:href="#landscape" x="0" y="0" width="100%" height="100%" />
</svg>