<svg xmlns="http://www.w3.org/2000/svg" version="1.1" width="1024" height="1024">
<rect x="0" y="0" width="1024" height="1024" fill="#5c7686" />
<g transform="scale(4.000000) translate(0.5 0.5)">
<polygon fill="#e8e6f2" fill-opacity="0.501961" points="-16,132 267,174 260,47" />
<polygon fill="#382000" fill-opacity="0.501961" points="271,250 -16,146 3,271" />
<polygon fill="#0044a0" fill-opacity="0.501961" points="-16,100 271,4 1,-16" />
<polygon fill="#4d1c05" fill-opacity="0.501961" points="116,130 78,271 76,39" />
<polygon fill="#2c99e7" fill-opacity="0.501961" points="271,101 248,-16 67,80" />
<polygon fill="#f2e1db" fill-opacity="0.501961" points="271,114 110,105 110,177" />
<polygon fill="#00528e" fill-opacity="0.501961" points="-16,76 -1,-16 271,1" />
<polygon fill="#746748" fill-opacity="0.501961" points="261,245 9,174 266,154" />
<polygon fill="#abb3c4" fill-opacity="0.501961" points="-16,114 76,82 77,175" />
<polygon fill="#902400" fill-opacity="0.501961" points="108,124 89,54 109,47" />
<polygon fill="#00234b" fill-opacity="0.501961" points="1,-15 105,-16 -8,70" />
<polygon fill="#211f03" fill-opacity="0.501961" points="-8,164 82,258 1,271" />
<polygon fill="#d9dee6" fill-opacity="0.501961" points="265,85 136,108 267,171" />
<polygon fill="#964f15" fill-opacity="0.501961" points="120,263 109,124 76,260" />
<polygon fill="#000000" fill-opacity="0.501961" points="78,211 93,168 77,111" />
<polygon fill="#ecf8ff" fill-opacity="0.501961" points="86,159 104,154 90,130" />
<polygon fill="#017bbc" fill-opacity="0.501961" points="26,61 159,-16 271,20" />
<polygon fill="#c4f9ff" fill-opacity="0.501961" points="99,118 100,94 84,114" />
<polygon fill="#090000" fill-opacity="0.501961" points="81,129 77,106 110,130" />
<polygon fill="#814c22" fill-opacity="0.501961" points="70,256 196,165 34,224" />
<polygon fill="#2d543f" fill-opacity="0.501961" points="120,271 271,254 223,184" />
<polygon fill="#7e8694" fill-opacity="0.501961" points="-7,76 -16,155 77,184" />
<polygon fill="#7facd3" fill-opacity="0.501961" points="270,89 113,111 108,66" />
<polygon fill="#a3958b" fill-opacity="0.501961" points="110,200 215,156 113,147" />
<polygon fill="#240000" fill-opacity="0.501961" points="90,92 77,62 78,112" />
<polygon fill="#a7dfff" fill-opacity="0.501961" points="86,97 98,95 86,119" />
<polygon fill="#4587b9" fill-opacity="0.501961" points="12,100 76,95 77,46" />
<polygon fill="#66817a" fill-opacity="0.501961" points="226,152 115,214 181,233" />
<polygon fill="#005790" fill-opacity="0.501961" points="-16,96 43,7 184,-16" />
<polygon fill="#5fadec" fill-opacity="0.501961" points="101,82 82,85 97,61" />
<polygon fill="#d4ddeb" fill-opacity="0.501961" points="101,158 100,130 87,134" />
<polygon fill="#3a3c43" fill-opacity="0.501961" points="84,214 104,137 105,226" />
<polygon fill="#000000" fill-opacity="0.501961" points="81,64 103,50 104,64" />
<polygon fill="#778c8b" fill-opacity="0.501961" points="92,213 89,168 102,178" />
<polygon fill="#4a93cb" fill-opacity="0.501961" points="139,89 271,51 99,37" />
<polygon fill="#000000" fill-opacity="0.501961" points="78,91 103,84 104,96" />
<polygon fill="#93999c" fill-opacity="0.501961" points="244,144 271,179 184,176" />
<polygon fill="#b6becc" fill-opacity="0.501961" points="76,128 4,112 68,95" />
<polygon fill="#e7dad6" fill-opacity="0.501961" points="168,157 271,94 271,139" />
<polygon fill="#1b0000" fill-opacity="0.501961" points="80,154 107,165 77,178" />
<polygon fill="#d66034" fill-opacity="0.501961" points="100,73 108,96 108,50" />
<polygon fill="#010000" fill-opacity="0.501961" points="95,119 103,116 103,137" />
<polygon fill="#551902" fill-opacity="0.501961" points="79,86 76,49 90,55" />
<polygon fill="#1a3235" fill-opacity="0.501961" points="60,213 -16,243 -16,154" />
<polygon fill="#277cb9" fill-opacity="0.501961" points="208,55 271,3 65,46" />
<polygon fill="#7e6621" fill-opacity="0.501961" points="54,237 157,271 108,224" />
<polygon fill="#964829" fill-opacity="0.501961" points="152,174 210,162 112,213" />
<polygon fill="#341601" fill-opacity="0.501961" points="113,209 58,233 99,227" />
<polygon fill="#4b6269" fill-opacity="0.501961" points="-16,153 77,170 72,207" />
<polygon fill="#002348" fill-opacity="0.501961" points="59,-13 -9,43 3,-11" />
<polygon fill="#d04e16" fill-opacity="0.501961" points="102,119 109,94 111,144" />
<polygon fill="#ce4c0f" fill-opacity="0.501961" points="111,157 103,178 115,212" />
<polygon fill="#200503" fill-opacity="0.501961" points="89,128 77,155 77,93" />
<polygon fill="#266596" fill-opacity="0.501961" points="104,83 103,64 83,63" />
<polygon fill="#dfd3e0" fill-opacity="0.501961" points="103,113 90,119 84,115" />
<polygon fill="#9499a6" fill-opacity="0.501961" points="3,101 77,148 -16,141" />
<polygon fill="#bfbdc3" fill-opacity="0.501961" points="205,155 152,97 111,157" />
<polygon fill="#3f5e4f" fill-opacity="0.501961" points="131,248 241,224 114,215" />
<polygon fill="#0067a4" fill-opacity="0.501961" points="3,84 87,11 202,-7" />
<polygon fill="#000000" fill-opacity="0.501961" points="72,207 92,208 84,200" />
<polygon fill="#c27366" fill-opacity="0.501961" points="85,64 86,87 81,79" />
<polygon fill="#6b6474" fill-opacity="0.501961" points="52,84 23,89 76,63" />
<polygon fill="#498dc1" fill-opacity="0.501961" points="77,99 17,97 75,66" />
<polygon fill="#006bad" fill-opacity="0.501961" points="270,17 131,17 241,-16" />
<polygon fill="#5a6d64" fill-opacity="0.501961" points="239,167 259,230 186,201" />
<polygon fill="#8fbbdc" fill-opacity="0.501961" points="152,101 271,73 271,105" />
<polygon fill="#004d82" fill-opacity="0.501961" points="128,-16 10,32 -13,94" />
<polygon fill="#2f4434" fill-opacity="0.501961" points="271,232 136,250 252,271" />
<polygon fill="#440d00" fill-opacity="0.501961" points="103,61 100,92 106,77" />
<polygon fill="#5596ca" fill-opacity="0.501961" points="114,79 270,65 223,37" />
<polygon fill="#acb0ba" fill-opacity="0.501961" points="102,158 101,134 88,158" />
<polygon fill="#ff8b5a" fill-opacity="0.501961" points="104,80 110,84 107,66" />
<polygon fill="#d6c5c6" fill-opacity="0.501961" points="86,151 88,132 96,130" />
<polygon fill="#5992c4" fill-opacity="0.501961" points="84,67 100,62 102,83" />
<polygon fill="#7a7568" fill-opacity="0.501961" points="118,177 187,165 112,202" />
<polygon fill="#be4c1a" fill-opacity="0.501961" points="105,174 104,131 113,153" />
<polygon fill="#36120c" fill-opacity="0.501961" points="102,112 103,97 109,125" />
<polygon fill="#bdc4d0" fill-opacity="0.501961" points="112,157 220,97 110,104" />
<polygon fill="#78a2c6" fill-opacity="0.501961" points="109,81 111,109 210,73" />
<polygon fill="#0b0000" fill-opacity="0.501961" points="103,152 99,171 105,178" />
<polygon fill="#bbb4b2" fill-opacity="0.501961" points="240,162 271,138 160,148" />
<polygon fill="#384846" fill-opacity="0.501961" points="71,202 14,203 -16,151" />
<polygon fill="#1d0908" fill-opacity="0.501961" points="82,133 103,119 80,118" />
<polygon fill="#374a4e" fill-opacity="0.501961" points="112,236 169,197 117,215" />
<polygon fill="#250900" fill-opacity="0.501961" points="103,190 99,218 106,211" />
<polygon fill="#8a9798" fill-opacity="0.501961" points="133,179 195,157 114,163" />
<polygon fill="#7d7363" fill-opacity="0.501961" points="92,217 103,198 100,172" />
<polygon fill="#1d2011" fill-opacity="0.501961" points="17,198 -16,208 10,271" />
<polygon fill="#4e6b81" fill-opacity="0.501961" points="-16,94 60,61 12,102" />
<polygon fill="#524417" fill-opacity="0.501961" points="52,269 46,223 103,259" />
<polygon fill="#e5e0e3" fill-opacity="0.501961" points="271,103 262,135 158,126" />
<polygon fill="#6e5a45" fill-opacity="0.501961" points="102,211 63,207 51,228" />
<polygon fill="#6d7794" fill-opacity="0.501961" points="121,78 140,90 111,55" />
<polygon fill="#ffd8cb" fill-opacity="0.501961" points="168,183 165,186 166,180" />
<polygon fill="#1e1516" fill-opacity="0.501961" points="76,98 91,94 76,76" />
<polygon fill="#190103" fill-opacity="0.501961" points="87,176 77,181 86,204" />
<polygon fill="#514c41" fill-opacity="0.501961" points="84,208 52,232 9,236" />
<polygon fill="#9a7466" fill-opacity="0.501961" points="169,168 228,150 201,169" />
<polygon fill="#210b03" fill-opacity="0.501961" points="96,55 76,65 103,62" />
<polygon fill="#808485" fill-opacity="0.501961" points="76,156 25,163 74,177" />
</g>
</svg>