<svg xmlns="http://www.w3.org/2000/svg" version="1.1" width="1024" height="1024">
<rect x="0" y="0" width="1024" height="1024" fill="#817c70" />
<g transform="scale(4.000000) translate(0.5 0.5)">
<polygon fill="#03030f" fill-opacity="0.501961" points="103,-16 188,271 42,247" />
<polygon fill="#ede1bb" fill-opacity="0.501961" points="271,118 160,220 152,-16" />
<polygon fill="#fff7be" fill-opacity="0.501961" points="61,214 -16,212 31,-16" />
<polygon fill="#72c2db" fill-opacity="0.501961" points="-16,7 101,-16 41,125" />
<polygon fill="#5bafce" fill-opacity="0.501961" points="271,-2 250,108 116,-10" />
<polygon fill="#2b2d34" fill-opacity="0.501961" points="172,-16 62,271 51,98" />
<polygon fill="#ec7d3e" fill-opacity="0.501961" points="149,145 271,143 193,271" />
<polygon fill="#e9d1a0" fill-opacity="0.501961" points="145,63 155,167 271,154" />
<polygon fill="#ffc48d" fill-opacity="0.501961" points="58,194 -11,230 -14,10" />
<polygon fill="#3d1f1c" fill-opacity="0.501961" points="270,259 249,216 184,253" />
<polygon fill="#37383c" fill-opacity="0.501961" points="83,-13 157,15 98,271" />
<polygon fill="#b2c6b6" fill-opacity="0.501961" points="88,58 -16,170 -2,45" />
<polygon fill="#87b3b6" fill-opacity="0.501961" points="158,-10 143,106 271,86" />
<polygon fill="#4c3631" fill-opacity="0.501961" points="138,210 11,214 -16,257" />
<polygon fill="#3a3b3d" fill-opacity="0.501961" points="56,206 56,265 221,222" />
<polygon fill="#fffffd" fill-opacity="0.501961" points="53,197 56,178 -8,177" />
<polygon fill="#629cae" fill-opacity="0.501961" points="-16,-14 118,-16 -12,98" />
<polygon fill="#9d4e3a" fill-opacity="0.501961" points="271,179 271,221 149,201" />
<polygon fill="#ffcf77" fill-opacity="0.501961" points="60,271 52,249 4,248" />
<polygon fill="#ffc27a" fill-opacity="0.501961" points="239,204 204,220 271,214" />
<polygon fill="#ea8844" fill-opacity="0.501961" points="-16,173 50,144 55,176" />
<polygon fill="#c2bfa8" fill-opacity="0.501961" points="136,100 267,145 271,48" />
<polygon fill="#3e3d3f" fill-opacity="0.501961" points="78,271 139,-13 48,115" />
<polygon fill="#3c3c3d" fill-opacity="0.501961" points="23,224 154,271 163,170" />
<polygon fill="#97beb8" fill-opacity="0.501961" points="80,75 86,10 -16,103" />
<polygon fill="#5d92a8" fill-opacity="0.501961" points="172,59 271,1 136,-16" />
<polygon fill="#2a2d32" fill-opacity="0.501961" points="151,118 129,89 149,173" />
<polygon fill="#e8b275" fill-opacity="0.501961" points="271,117 259,194 185,133" />
<polygon fill="#e4895d" fill-opacity="0.501961" points="170,249 251,229 189,226" />
<polygon fill="#3a3a3d" fill-opacity="0.501961" points="155,54 55,139 109,-16" />
<polygon fill="#eec08c" fill-opacity="0.501961" points="56,177 -14,138 46,95" />
<polygon fill="#ffba71" fill-opacity="0.501961" points="30,239 42,231 17,232" />
<polygon fill="#f19d5b" fill-opacity="0.501961" points="56,200 13,224 -16,196" />
<polygon fill="#fe9762" fill-opacity="0.501961" points="163,199 158,216 214,218" />
<polygon fill="#5a433e" fill-opacity="0.501961" points="204,209 271,202 209,188" />
<polygon fill="#423c3b" fill-opacity="0.501961" points="205,231 235,271 271,236" />
<polygon fill="#644a43" fill-opacity="0.501961" points="193,218 172,265 154,214" />
<polygon fill="#3a3130" fill-opacity="0.501961" points="207,225 271,231 247,218" />
<polygon fill="#353237" fill-opacity="0.501961" points="-8,251 -16,230 53,241" />
<polygon fill="#e4d6bf" fill-opacity="0.501961" points="157,124 139,98 154,87" />
<polygon fill="#3b3a3c" fill-opacity="0.501961" points="87,13 157,55 82,75" />
<polygon fill="#3e3d3e" fill-opacity="0.501961" points="56,97 55,271 158,215" />
<polygon fill="#ffa66d" fill-opacity="0.501961" points="233,236 228,229 255,230" />
<polygon fill="#433f40" fill-opacity="0.501961" points="6,214 87,214 69,231" />
<polygon fill="#ffa46d" fill-opacity="0.501961" points="39,246 -12,254 73,264" />
<polygon fill="#68a9c4" fill-opacity="0.501961" points="125,-16 110,1 166,8" />
<polygon fill="#bbbfac" fill-opacity="0.501961" points="72,73 -16,67 30,124" />
<polygon fill="#ffdf9d" fill-opacity="0.501961" points="58,214 -16,175 50,189" />
<polygon fill="#86afae" fill-opacity="0.501961" points="271,63 140,81 185,10" />
<polygon fill="#e4905a" fill-opacity="0.501961" points="161,209 233,156 165,158" />
<polygon fill="#5f91a5" fill-opacity="0.501961" points="138,-16 22,34 -16,-1" />
<polygon fill="#403e40" fill-opacity="0.501961" points="145,182 138,5 52,104" />
<polygon fill="#db9459" fill-opacity="0.501961" points="-10,138 56,169 -2,179" />
<polygon fill="#3b3c3e" fill-opacity="0.501961" points="163,176 105,106 155,243" />
<polygon fill="#523837" fill-opacity="0.501961" points="237,173 202,175 220,169" />
<polygon fill="#dbcbb3" fill-opacity="0.501961" points="157,98 139,76 151,73" />
<polygon fill="#ec835a" fill-opacity="0.501961" points="271,164 196,182 271,185" />
<polygon fill="#625149" fill-opacity="0.501961" points="60,247 59,207 36,249" />
<polygon fill="#a96d54" fill-opacity="0.501961" points="180,185 213,200 252,188" />
<polygon fill="#393539" fill-opacity="0.501961" points="32,222 -16,253 -16,224" />
<polygon fill="#ecc184" fill-opacity="0.501961" points="156,163 151,118 202,144" />
<polygon fill="#6694a6" fill-opacity="0.501961" points="194,40 270,18 114,-8" />
<polygon fill="#fffcd5" fill-opacity="0.501961" points="56,192 55,175 4,177" />
<polygon fill="#ffb073" fill-opacity="0.501961" points="232,204 248,214 222,221" />
<polygon fill="#ffbf7f" fill-opacity="0.501961" points="-16,213 -16,224 25,220" />
<polygon fill="#8db3ad" fill-opacity="0.501961" points="-14,25 83,50 10,92" />
<polygon fill="#9a553f" fill-opacity="0.501961" points="168,249 180,234 195,271" />
<polygon fill="#faa66e" fill-opacity="0.501961" points="190,248 212,224 180,238" />
<polygon fill="#443e3a" fill-opacity="0.501961" points="271,210 219,196 271,193" />
<polygon fill="#3c3d3f" fill-opacity="0.501961" points="152,172 150,114 106,73" />
<polygon fill="#30363a" fill-opacity="0.501961" points="193,222 174,219 179,238" />
<polygon fill="#9ecac6" fill-opacity="0.501961" points="80,71 63,84 83,30" />
<polygon fill="#7c483f" fill-opacity="0.501961" points="216,216 237,198 183,201" />
<polygon fill="#d5c4aa" fill-opacity="0.501961" points="53,88 -13,122 44,136" />
<polygon fill="#393a3d" fill-opacity="0.501961" points="144,9 84,60 91,5" />
<polygon fill="#603735" fill-opacity="0.501961" points="10,215 -16,201 -16,216" />
<polygon fill="#ffb275" fill-opacity="0.501961" points="21,236 35,231 43,235" />
<polygon fill="#73a2ae" fill-opacity="0.501961" points="64,51 100,-7 -16,36" />
<polygon fill="#ffcb8e" fill-opacity="0.501961" points="17,214 54,211 54,200" />
<polygon fill="#fbc789" fill-opacity="0.501961" points="164,186 166,177 197,181" />
<polygon fill="#a1bbad" fill-opacity="0.501961" points="148,103 244,74 151,58" />
<polygon fill="#383637" fill-opacity="0.501961" points="154,49 132,22 141,73" />
<polygon fill="#de6a4d" fill-opacity="0.501961" points="162,186 161,202 220,197" />
<polygon fill="#78abb8" fill-opacity="0.501961" points="153,47 155,5 171,63" />
<polygon fill="#323337" fill-opacity="0.501961" points="53,137 67,82 49,105" />
<polygon fill="#72453d" fill-opacity="0.501961" points="218,242 220,230 199,233" />
<polygon fill="#ffb075" fill-opacity="0.501961" points="53,235 54,238 48,239" />
<polygon fill="#60483f" fill-opacity="0.501961" points="188,187 199,189 201,182" />
<polygon fill="#ffb87d" fill-opacity="0.501961" points="227,189 220,195 234,190" />
<polygon fill="#ddaf6f" fill-opacity="0.501961" points="166,140 159,170 271,162" />
<polygon fill="#562429" fill-opacity="0.501961" points="263,212 266,205 246,213" />
<polygon fill="#f4ad77" fill-opacity="0.501961" points="54,249 56,270 11,247" />
<polygon fill="#b66f51" fill-opacity="0.501961" points="161,208 157,222 179,211" />
<polygon fill="#f09c69" fill-opacity="0.501961" points="194,226 184,236 222,228" />
<polygon fill="#d88059" fill-opacity="0.501961" points="213,166 209,187 164,172" />
<polygon fill="#3f3e3f" fill-opacity="0.501961" points="63,221 89,13 144,84" />
<polygon fill="#3e3d3f" fill-opacity="0.501961" points="62,87 159,171 56,210" />
<polygon fill="#484341" fill-opacity="0.501961" points="270,269 179,250 271,241" />
<polygon fill="#f3b771" fill-opacity="0.501961" points="43,193 -5,194 55,209" />
<polygon fill="#f8ad77" fill-opacity="0.501961" points="202,220 225,217 179,208" />
</g>
</svg>